<?xml version="1.0" encoding="UTF-8"?>
<svg id="New_DA" data-name="New DA" xmlns="http://www.w3.org/2000/svg" viewBox="0 0 84.43 147.67">
  <defs>
    <style>
      .cls-1 {
        fill: #e07679;
      }

      .cls-2 {
        fill: #dd343a;
      }

      .cls-3 {
        fill: #d2d3e0;
      }

      .cls-4 {
        fill: #cd2228;
      }
    </style>
  </defs>
  <g id="Eferalgan-2" data-name="Eferalgan">
    <path class="cls-4" d="M79.04,104.3c7.53,14.83-5.26,34.32-29.76,41.18-24.5,6.86-45.55-3.16-46.81-19.75-1.09-14.25,13.21-28.63,31.81-33.84,18.6-5.21,38.28-.34,44.75,12.41Z"/>
    <rect class="cls-4" x=".43" y="109.9" width="80.28" height="8.95" transform="translate(-29.33 15.17) rotate(-15.64)"/>
    <path class="cls-2" d="M76.62,95.68c7.53,14.83-5.26,34.32-29.76,41.18S1.32,133.7.06,117.11c-1.09-14.25,13.21-28.63,31.81-33.84,18.6-5.21,38.28-.34,44.75,12.41Z"/>
    <g>
      <path class="cls-3" d="M16.01,114.75c.65.29,1.59.26,2.83-.09,1.18-.33,2-.73,2.48-1.2.47-.47.77-.96.9-1.48.07-.27.16-.46.26-.57.1-.11.31-.22.62-.3l3.82-1.07c.18-.05.33-.05.48,0,.15.05.23.14.26.26.18.92-.05,1.9-.69,2.91-.65,1.03-1.64,1.97-2.96,2.84-1.33.87-2.85,1.55-4.57,2.03-1.86.52-3.52.71-4.97.56-1.45-.15-2.61-.56-3.47-1.23s-1.39-1.52-1.6-2.55c-.12-.66-.21-1.2-.26-1.62-.06-.51-.13-1.18-.19-2.03-.07-1.02.21-2.03.82-3.04s1.53-1.91,2.76-2.74c1.22-.82,2.7-1.48,4.42-1.96,1.6-.45,3.09-.65,4.49-.6,1.41.04,2.57.31,3.5.81.94.5,1.51,1.18,1.72,2.05.03.12-.01.24-.12.36-.11.12-.24.2-.42.25l-3.75,1.05c-.3.09-.52.1-.65.06-.13-.05-.27-.17-.43-.36-.29-.37-.72-.64-1.29-.79s-1.41-.07-2.54.24c-1.19.33-2.03.79-2.52,1.36-.49.58-.73,1.22-.7,1.93.03.47.1,1.04.2,1.71s.21,1.22.32,1.71c.19.7.6,1.19,1.25,1.48Z"/>
      <path class="cls-3" d="M41.3,97.39c1.42.08,2.61.4,3.56.96.96.57,1.64,1.32,2.04,2.26.16.35.37.92.64,1.71s.44,1.37.52,1.74c.26,1.03.16,2.06-.3,3.1-.47,1.05-1.31,2.01-2.52,2.9-1.22.89-2.78,1.6-4.68,2.13s-3.61.74-5.11.61c-1.5-.12-2.73-.51-3.67-1.16-.94-.65-1.57-1.48-1.89-2.49-.21-.72-.36-1.3-.47-1.75s-.22-1.05-.36-1.79c-.15-1.01.03-2,.55-2.98.52-.97,1.36-1.86,2.54-2.67,1.17-.8,2.63-1.45,4.39-1.94,1.76-.49,3.35-.7,4.77-.62ZM40.11,100.86c-.71-.23-1.62-.19-2.74.12s-1.91.75-2.4,1.32-.69,1.21-.61,1.92c.05.44.17.99.34,1.65s.35,1.21.53,1.67c.28.69.79,1.16,1.52,1.42s1.68.22,2.84-.1,1.99-.79,2.48-1.39.67-1.26.56-2c-.09-.49-.23-1.06-.42-1.7s-.39-1.18-.58-1.58c-.3-.65-.81-1.09-1.52-1.32Z"/>
      <path class="cls-3" d="M60.25,102.85l7.39-2.07c.22-.06.43-.06.63,0,.2.06.34.16.4.31l.95,2.11c.07.15.05.3-.07.45-.11.15-.28.26-.5.32l-15.82,4.43c-.22.06-.43.06-.63,0-.2-.07-.32-.18-.38-.33l-.62-1.76c-.18-.51-.03-.99.44-1.43l7.12-6.6c.49-.47.78-.87.88-1.18.09-.31.08-.62-.04-.91s-.42-.57-.88-.78c-.46-.21-1.15-.19-2.07.07-.64.18-1.11.4-1.42.67s-.48.49-.53.66c-.05.17-.1.43-.16.78-.03.19-.13.34-.3.46s-.39.21-.68.29l-3.51.98c-.17.05-.33.05-.49,0-.15-.05-.25-.13-.29-.24-.22-.75-.16-1.53.19-2.35.35-.82,1.02-1.59,2.02-2.33,1-.74,2.32-1.33,3.97-1.79s3.01-.63,4.31-.56c1.3.07,2.39.34,3.26.81.88.48,1.49,1.1,1.83,1.87.34.75.38,1.51.13,2.28-.25.77-.89,1.65-1.92,2.64l-3.24,3.22Z"/>
    </g>
    <circle class="cls-1" cx="51.7" cy="81.02" r="4.39"/>
    <circle class="cls-3" cx="60.54" cy="81.6" r="6.39"/>
    <circle class="cls-1" cx="54.15" cy="87.98" r="2.52"/>
    <circle class="cls-1" cx="67.61" cy="85.47" r="3.45"/>
    <circle class="cls-3" cx="71.56" cy="90.46" r="4.41"/>
    <circle class="cls-1" cx="64.68" cy="90.8" r="1.88"/>
    <circle class="cls-1" cx="66.56" cy="93.6" r="2.52"/>
    <circle class="cls-1" cx="71.06" cy="96.45" r="3.77"/>
    <circle class="cls-1" cx="77.35" cy="93.6" r="2.52"/>
    <circle class="cls-3" cx="71.56" cy="85.08" r="2.52"/>
    <circle class="cls-3" cx="69.15" cy="77.53" r="4.06"/>
    <circle class="cls-1" cx="75.33" cy="81.6" r="3.77"/>
    <circle class="cls-3" cx="76.61" cy="86.76" r="2.16"/>
    <circle class="cls-1" cx="78.52" cy="89.53" r="4.06"/>
    <circle class="cls-3" cx="56.67" cy="71.76" r="2.52"/>
    <circle class="cls-3" cx="66.34" cy="68.21" r="3.54"/>
    <circle class="cls-1" cx="72.19" cy="71.36" r="1.89"/>
    <circle class="cls-3" cx="74.83" cy="75.93" r="1.02"/>
    <circle class="cls-1" cx="81.7" cy="70.5" r="2.28"/>
    <circle class="cls-3" cx="83.06" cy="73.55" r="1.36"/>
    <circle class="cls-3" cx="79.27" cy="74.42" r=".87"/>
    <circle class="cls-3" cx="81.29" cy="83.31" r=".75"/>
    <circle class="cls-3" cx="74.51" cy="61.85" r="2.1"/>
    <circle class="cls-3" cx="78.51" cy="60.44" r="2.95"/>
    <circle class="cls-1" cx="74.83" cy="58.41" r="2.58"/>
    <circle class="cls-1" cx="69.04" cy="60.54" r="1.31"/>
    <circle class="cls-3" cx="81.07" cy="51.04" r=".96"/>
    <circle class="cls-3" cx="65.89" cy="53.64" r="2.19"/>
    <circle class="cls-3" cx="68.07" cy="55.42" r="1.6"/>
    <circle class="cls-3" cx="67.3" cy="57.32" r=".96"/>
    <circle class="cls-1" cx="61.38" cy="61.02" r="1.79"/>
    <circle class="cls-3" cx="67.3" cy="51.04" r=".96"/>
    <circle class="cls-3" cx="72.43" cy="52.55" r="1.09"/>
    <circle class="cls-1" cx="67.89" cy="46.84" r="2"/>
    <circle class="cls-3" cx="65.13" cy="45.62" r="1.43"/>
    <circle class="cls-3" cx="68.19" cy="40.79" r=".47"/>
    <circle class="cls-3" cx="73.2" cy="41.97" r="1.65"/>
    <circle class="cls-3" cx="63.86" cy="41.77" r="2.48"/>
    <circle class="cls-3" cx="67.82" cy="43.9" r="1.26"/>
    <circle class="cls-3" cx="62.28" cy="45.74" r="3.1"/>
    <circle class="cls-3" cx="59.04" cy="50.87" r="1.13"/>
    <circle class="cls-3" cx="57.94" cy="45.98" r=".35"/>
    <circle class="cls-3" cx="61.14" cy="40.06" r="3.55"/>
    <circle class="cls-3" cx="64.74" cy="35.23" r="1.94"/>
    <circle class="cls-3" cx="60.96" cy="35.71" r="1.77"/>
    <circle class="cls-3" cx="69.48" cy="35.21" r=".82"/>
    <circle class="cls-3" cx="76.86" cy="34.23" r=".55"/>
    <circle class="cls-3" cx="59.54" cy="30.69" r="1.6"/>
    <circle class="cls-3" cx="62.86" cy="31" r=".3"/>
    <circle class="cls-3" cx="57.57" cy="34.05" r=".37"/>
    <circle class="cls-3" cx="54.98" cy="29.08" r=".83"/>
    <circle class="cls-3" cx="68.17" cy="26.13" r="2.13"/>
    <circle class="cls-3" cx="57.97" cy="19.01" r="3.81"/>
    <circle class="cls-3" cx="63.77" cy="16.49" r=".91"/>
    <circle class="cls-3" cx="63.89" cy="20.34" r="1.33"/>
    <circle class="cls-3" cx="52.12" cy="21.61" r=".42"/>
    <circle class="cls-3" cx="53.48" cy="12.97" r="2.61"/>
    <circle class="cls-3" cx="60.27" cy="11.04" r=".69"/>
    <circle class="cls-3" cx="53.01" cy="5.31" r=".47"/>
    <circle class="cls-3" cx="48.04" cy="3.58" r=".48"/>
    <circle class="cls-3" cx="56.09" cy=".28" r=".28"/>
    <circle class="cls-3" cx="43.41" cy="13.17" r="1.44"/>
    <circle class="cls-3" cx="44.56" cy="15.37" r=".27"/>
    <circle class="cls-3" cx="50.61" cy="35.65" r="3.65"/>
    <circle class="cls-1" cx="49.62" cy="39.47" r="2.31"/>
    <circle class="cls-3" cx="43.88" cy="34.91" r=".86"/>
    <circle class="cls-3" cx="44.99" cy="26.48" r="1.97"/>
    <circle class="cls-3" cx="51.34" cy="59.84" r="2.81"/>
    <circle class="cls-1" cx="79.16" cy="100.78" r="4.33"/>
    <circle class="cls-3" cx="74.4" cy="99.58" r="2.21"/>
    <circle class="cls-1" cx="75.02" cy="109.66" r="1.21"/>
    <circle class="cls-1" cx="76.61" cy="106.69" r="1.77"/>
    <circle class="cls-1" cx="71.13" cy="115.21" r=".83"/>
    <circle class="cls-1" cx="68.32" cy="106.68" r="1.77"/>
    <circle class="cls-1" cx="66.86" cy="101.05" r="1.47"/>
  </g>
</svg>