<?xml version="1.0" encoding="UTF-8"?>
<svg id="New_DA" data-name="New DA" xmlns="http://www.w3.org/2000/svg" xmlns:xlink="http://www.w3.org/1999/xlink" viewBox="0 0 884.68 769.47">
  <defs>
    <style>
      .cls-1 {
        stroke: url(#Dégradé_sans_nom_261);
        stroke-miterlimit: 10;
        stroke-width: 10px;
      }

      .cls-1, .cls-2, .cls-3, .cls-4, .cls-5 {
        fill: none;
      }

      .cls-2 {
        stroke-width: 15px;
      }

      .cls-2, .cls-4, .cls-5 {
        stroke: #dd343a;
        stroke-linecap: round;
        stroke-linejoin: round;
      }

      .cls-6 {
        fill: #dd343a;
      }

      .cls-7, .cls-8 {
        fill: #d2d3e0;
      }

      .cls-8 {
        font-family: Baloo-Regular, Baloo;
        font-size: 100px;
      }

      .cls-4, .cls-5 {
        stroke-width: 5px;
      }

      .cls-9 {
        fill: url(#Dégradé_sans_nom_300);
      }

      .cls-5 {
        stroke-dasharray: 12.02 12.02;
      }
    </style>
    <linearGradient id="Dégradé_sans_nom_300" data-name="Dégradé sans nom 300" x1="167.14" y1="125.46" x2="530.5" y2="488.82" gradientUnits="userSpaceOnUse">
      <stop offset="0" stop-color="#103496"/>
      <stop offset="1" stop-color="#1b51e6"/>
    </linearGradient>
    <linearGradient id="Dégradé_sans_nom_261" data-name="Dégradé sans nom 261" x1="305.93" y1="189.89" x2="435.34" y2="189.89" gradientUnits="userSpaceOnUse">
      <stop offset="0" stop-color="#cd2228"/>
      <stop offset="1" stop-color="#dd343a"/>
    </linearGradient>
  </defs>
  <g id="Dilatation-2" data-name="Dilatation">
    <path class="cls-9" d="M669.07,260.51c-69.51,41.68-26.14,87.9-62.16,145.98-18.07,29.15-51,67.2-143.1,67.54-56.99.2-73.23,36.22-82.58,63.2-9.35,26.99-70.32,93.09-133.77,49.42-44.62-30.71-67.21-32.05-93.81-17.1-39.68,22.29-48.8-.16-51.53-10.27-.16-.57-.29-1.1-.41-1.58-.43-1.77-.85-14.97.2-35.68-16.89-3.54-32.59-13.09-43.6-28.1-9.49-12.94-14.06-27.97-14.06-42.87,0-22.33,10.28-44.36,29.67-58.58l5.81-4.26c-16.34-1.42-32-9.62-42.46-23.88-7.71-10.51-11.42-22.73-11.42-34.84,0-18.15,8.35-36.06,24.11-47.62l17.54-12.86c-2.94-1.65-5.58-3.95-7.7-6.84-3.2-4.36-4.74-9.44-4.74-14.46,0-7.54,3.46-14.98,10.01-19.78l192.74-141.34c10.91-8,26.24-5.64,34.24,5.26,2.12,2.9,3.51,6.1,4.21,9.4l24.06-17.64c-2.94-1.65-5.58-3.95-7.7-6.84-3.2-4.37-4.74-9.44-4.74-14.47,0-7.54,3.46-14.97,10-19.77l28.56-20.93c10.9-8,26.23-5.64,34.23,5.26,2.12,2.89,3.52,6.11,4.21,9.41l20.38-14.95c26.27-19.27,63.19-13.59,82.45,12.68,7.71,10.51,11.43,22.73,11.43,34.84,0,4.32-.47,8.62-1.41,12.83l25.35-18.59c32.32-23.7,77.74-16.71,101.45,15.61,8.88,12.12,13.45,26.08,14,40.04,2.51.88,4.92,1.79,7.23,2.72,19.09,7.69,31.65,17.12,36.5,26.65,0,0,56.33,70.72-13.19,112.41Z"/>
    <path class="cls-7" d="M669.07,260.51c-69.51,41.68-26.14,87.9-62.16,145.98-18.07,29.15-51,67.2-143.1,67.54-56.99.2-73.23,36.22-82.58,63.2-9.35,26.99-70.32,93.09-133.77,49.42-44.62-30.71-67.21-32.05-93.81-17.1-39.68,22.29-48.8-.16-51.53-10.27,1.65.38,3.42.62,5.28.7,17.03.77,20.9-17.81,28.65-7.35,7.74,10.45,24.77,2.71,30.96-3.49,6.2-6.19,8.84-5.26,20.39-1.68,11.23,3.49,19.02,7.73,29.94,6.33,8.82-1.13,16.26,6.19,27.87,18.58,11.61,12.38,11.9,2.98,22.71,7.22,10.84,4.26,12.05,8.92,24.11,4.6,12.71-4.56,32.92-8.75,51.5-19.19,18.58-10.44,13.42-13.66,17.29-24.5,3.87-10.84,10.45-6.58,17.42-13.94,8-8.45-.84-18.84,3.87-27.87,4.65-8.9,2.53-12.85,15.49-17.42,13.16-4.64.48,2.46,18.19-7.74,12.77-7.36,19.82-8.69,33.81-12.39,13.67-3.61,8.51,4.13,20.9.52,12.37-3.61,22.71-10.58,30.19-12.39,11.9-2.87,13,3.38,23.74-1.03,10.07-4.13,4.91-12.65,21.55-14.71,22.49-2.79,18.21,5.47,25.55-7.74,3.87-6.97-.52-16.52,9.29-21.94,15.29-8.45,22.39-5.27,23.61-16.51,2.2-20.25-.92-27.16,4.52-35.17,6.97-10.25,13.34-16.57,11.74-26.77-1.03-6.58-3.09-8.9.26-17.94,3.25-8.73,10.75-16.68,11.61-24.77,1.29-12.13,10.33-20.64,12.91-22.32,7.81-5.08,20.9-3.1,23.22-16.26,2.32-13.16,21.68-4.77,24-21.03,2.32-16.26-.77-14.58-1.55-30.07-.77-15.48,5.55-12.9-4.9-23.35-9.92-9.92-37.68-26.97-36.13-32.39,1.55-5.42,3.56-5.7-4.35-15.82,19.09,7.69,31.65,17.12,36.5,26.65,0,0,56.33,70.72-13.19,112.41Z"/>
    <g>
      <path class="cls-3" d="M2.5,642.44s1.16,85.94,76.65,66.19c75.48-19.74,97.55,38.32,139.35,48.77,41.81,10.45,232.26,31.35,233.42-62.71s188.13-33.68,250.84-82.45c62.71-48.77,70.84-127.74,52.26-197.42-18.58-69.68,112.65-89.42,125.42-132.39,12.77-42.97-48.77-103.35-45.29-168.39,3.48-65.03-83.61-111.55-83.61-111.55"/>
      <g>
        <path class="cls-4" d="M2.5,642.44s.03,2.27.41,5.98"/>
        <path class="cls-5" d="M4.75,660.28c5.05,24.01,21.42,62.2,74.39,48.35,75.48-19.74,97.55,38.32,139.35,48.77,41.81,10.45,232.26,31.35,233.42-62.71,1.16-94.06,188.13-33.68,250.84-82.45,62.71-48.77,70.84-127.74,52.26-197.42-18.58-69.68,112.65-89.42,125.42-132.39,12.77-42.97-48.77-103.35-45.29-168.39,2.74-51.05-50.36-90.7-73.31-105.38"/>
        <path class="cls-4" d="M756.73,5.49c-3.27-1.97-5.19-2.99-5.19-2.99"/>
      </g>
    </g>
    <g>
      <path class="cls-2" d="M496.44,582.5c-3.29-12.13-23.3-36.84-40.06-53.03-14.03-13.55-26.9-20.26-40.32-29.03"/>
      <path class="cls-6" d="M508.99,615l-40.2-23.21c-3.8-2.2-3.8-7.69,0-9.88l40.2-23.21c3.8-2.2,8.56.55,8.56,4.94v46.42c0,4.39-4.76,7.14-8.56,4.94Z"/>
    </g>
    <g>
      <path class="cls-2" d="M736.73,322.51c-6.68-10.65-19.94-19.68-40.55-30.57-12-6.34-22.84-9.31-39.1-12.14"/>
      <path class="cls-6" d="M755.97,354.09l-42.86-17.82c-4.06-1.69-4.77-7.13-1.28-9.8l36.86-28.21c3.49-2.67,8.56-.56,9.13,3.79l6,46.03c.57,4.36-3.79,7.69-7.85,6.01Z"/>
    </g>
    <g>
      <path class="cls-2" d="M224.5,704.34c-4.62-11.69-5.69-37.09-1.94-60.1,3.13-19.25,10.27-31.55,18.52-45.48"/>
      <path class="cls-6" d="M229.86,739.41l19.92-41.93c1.89-3.97-1.23-8.49-5.61-8.14l-46.27,3.71c-4.38.35-6.74,5.31-4.24,8.93l26.35,38.22c2.49,3.62,7.97,3.18,9.85-.79Z"/>
    </g>
    <path class="cls-1" d="M364.52,140.77l-52.63,91.16c-2.72,4.71.68,10.6,6.12,10.6h105.26c5.44,0,8.84-5.89,6.12-10.6l-52.63-91.16c-2.72-4.71-9.52-4.71-12.23,0Z"/>
    <text class="cls-8" transform="translate(355.73 227.39)"><tspan x="0" y="0">!</tspan></text>
  </g>
</svg>