<?xml version="1.0" encoding="UTF-8"?>
<svg id="New_DA" data-name="New DA" xmlns="http://www.w3.org/2000/svg" xmlns:xlink="http://www.w3.org/1999/xlink" viewBox="0 0 819.82 863.58">
  <defs>
    <style>
      .cls-1 {
        fill: url(#Dégradé_sans_nom_87);
      }

      .cls-2 {
        fill: url(#Dégradé_sans_nom_300-2);
      }

      .cls-3 {
        fill: url(#Dégradé_sans_nom_300);
      }
    </style>
    <linearGradient id="Dégradé_sans_nom_300" data-name="Dégradé sans nom 300" x1="158.5" y1="149.03" x2="158.51" y2="149.04" gradientUnits="userSpaceOnUse">
      <stop offset="0" stop-color="#103496"/>
      <stop offset="1" stop-color="#1b51e6"/>
    </linearGradient>
    <linearGradient id="Dégradé_sans_nom_300-2" data-name="Dégradé sans nom 300" x1="84.19" y1="108.63" x2="566.06" y2="590.5" xlink:href="#Dégradé_sans_nom_300"/>
    <linearGradient id="Dégradé_sans_nom_87" data-name="Dégradé sans nom 87" x1="341.46" y1="355.07" x2="571.48" y2="585.09" gradientUnits="userSpaceOnUse">
      <stop offset="0" stop-color="#b0b2c4"/>
      <stop offset="1" stop-color="#d2d3e0"/>
    </linearGradient>
  </defs>
  <g id="Dilatation-2" data-name="Dilatation">
    <path class="cls-3" d="M158.51,149.02h0s-.02,0-.02,0c0,0,.01,0,.02,0Z"/>
    <path class="cls-2" d="M819.63,184.9s-.14.04-.42.05v-.05c0-23.41-18.98-42.39-42.39-42.39h-97.47c0-9.62-7.8-17.42-17.42-17.42h-76.64c-4.81,0-9.17,1.95-12.32,5.1-3.15,3.15-5.1,7.51-5.1,12.32h-32.35c1.63-1.16,3.15-2.45,4.56-3.85,6.4-6.42,10.37-15.27,10.37-25.05,0-19.56-15.86-35.42-35.42-35.42H150.97c-9.79,0-18.64,3.97-25.05,10.37-6.36,6.37-10.31,15.14-10.37,24.84-3.57-.69-7.26-1.05-11.03-1.05-32.07,0-58.07,26-58.07,58.07v489.97c0,28.7,20.83,52.54,48.19,57.23v54.44c0,31.11,25.22,56.32,56.33,56.32.51,0,1.01-.01,1.51-.02,2.66,3.35,6.08,6.56,10.1,9.57,41.41,31,147.35,41.77,160.39-13.19,16.25-68.52-62.35-92.46-15.1-167.23,43.45-68.75,43.76-96.35,7.76-140.48s-43.76-117.32,53.79-137.06c97.55-19.75,124,36,160,6.96,36-29.03,78.85-25.51,189.18-25.51s101.03-176.52,101.03-176.52ZM158.51,149.03h-.02s.01,0,.02,0h0Z"/>
    <path class="cls-3" d="M158.51,149.02h0s-.02,0-.02,0c0,0,.01,0,.02,0Z"/>
    <path class="cls-3" d="M158.51,149.02h0s-.02,0-.02,0c0,0,.01,0,.02,0Z"/>
    <path class="cls-1" d="M718.6,361.42c-110.33,0-153.18-3.52-189.18,25.51-36,29.04-62.45-26.71-160-6.96-97.55,19.74-89.79,92.93-53.79,137.06s35.69,71.73-7.76,140.48c-47.25,74.77,31.35,98.71,15.1,167.23-13.04,54.96-118.98,44.19-160.39,13.19,7.28-4.41,17.89-9.14,28-7.38,17.81,3.09,13.16,27.61,30.97,25.03,17.8-2.58,12.38-23.46,36.38-25.41,24-1.95,26.33,25.22,40.26,12.8,13.94-12.42,16.26-22.49,15.49-27.91-.78-5.42,6.45-.98-10.81-20.9-4.81-5.55-5.58-8.9-5.84-27.49-.23-16.74,6.58-11.22-5.03-29.8-11.61-18.58-17.31-17-15.36-31.1,2.92-21.03,7.62-13.8,13.04-30.84,5.42-17.03.38-22.96,7.35-34.58,6.97-11.61,8.9,9.03,23.61-28.13,14.71-37.16,23.05-41.4,9.88-52.77-13.16-11.38-8.33-17.95-13.75-27.88-5.42-9.93,6.32-14.04-20.13-23.99-12.2-4.59-19.74-18.2-13.54-33.68,6.19-15.48,1.93-4.13-1.17-25.81-3.09-21.67-11.61-19.35,0-33.29,11.62-13.93,13.17,2.33,29.42-20.9,16.26-23.23,27.5-22.03,40.65-22.97,10.84-.77,7.96,9.54,26.71-4.13,9.5-6.93,13.93-11.35,26.32-9.84,25.93,3.17,13.16,13.46,35.23,13.59,48.78.28,49.16-15.36,56.9,1.67,7.74,17.04,10.07,15.39,14.81,8.88,15.38-21.13,28.6-21.78,40.6-17.65,22.3,7.67,24.59-4.13,38.53-10.32,13.93-6.2,14.75-4.89,23.61-4.26,16.26,1.16,12.04,6.28,40.64-4.26,14.71-5.42,14.84,5.42,31.36,5.42s17.61,9.92,53.74-11.76c36.13-21.67,44.96-20.88,42.65-37.27-1.55-10.97,2.32-22.97,14.71-27.23,2.13-.73,20.24-1.26,5.93-25.42-7.95-13.42-3.23-29.8,1.42-36.51s7.87-7.87-.9-24.39c-.41-.78,11.21-19.48,11.1-20.22,3.48,6,4.27,17.78,4.27,17.67,0,0,9.29,176.52-101.03,176.52Z"/>
  </g>
</svg>