<?xml version="1.0" encoding="UTF-8"?>
<svg id="New_DA" data-name="New DA" xmlns="http://www.w3.org/2000/svg" viewBox="0 0 109.76 149.52">
  <defs>
    <style>
      .cls-1 {
        fill: #1b8ee6;
      }

      .cls-2 {
        fill: #103496;
      }
    </style>
  </defs>
  <g id="Fish2">
    <path class="cls-1" d="M27.18,55.27S-6.78,74.4,1.22,93.92c8.7-14.01,13.48-4.11,20.8,1.82s4.72-12.82,14.06-15.53,18.81,25.54,26.64,15.15c7.83-10.39,11.08-21.2,11.08-21.2l-46.62-18.88Z"/>
    <path class="cls-1" d="M76.76,28.94s56.52,3.53,21.62,63.24c-4.42-15.31-2.8-16.34-6.63-11.63-3.83,4.71-5.15-7.81-10.75-14.58s-7.79-3.98-7.21.44c.58,4.42,2.96-37.47,2.96-37.47Z"/>
    <ellipse class="cls-2" cx="56.6" cy="40.27" rx="33.24" ry="40.75" transform="translate(-8.66 16.48) rotate(-15.4)"/>
    <path class="cls-2" d="M24.56,49.1c1.38,4.27,3.45,9.23,5.46,12.64,34.63,58.88,9.03,74.27,9.03,74.27,0,0,65.2-30.91,49.6-104.57L24.56,49.1Z"/>
    <circle cx="34.66" cy="26.06" r="6.4"/>
    <circle cx="58.52" cy="14.87" r="6.4"/>
    <path class="cls-1" d="M17.99,149.52c4.05-7.36,28.53-27.39,38.61-28.27,10.09-.88,15.98-24.88,13.77-34.16-2.21-9.28-4.56-13.84,4.71-30.77,9.28-16.93-22.97-27.39-22.97-27.39,0,0,42.64,34.75-.31,92.1-6.34,8.47-12.14,18.59-22.63,20.02-5.89.8-12.88,2.5-11.19,8.47Z"/>
  </g>
</svg>