<?xml version="1.0" encoding="UTF-8"?>
<svg id="New_DA" data-name="New DA" xmlns="http://www.w3.org/2000/svg" xmlns:xlink="http://www.w3.org/1999/xlink" viewBox="0 0 418.06 459">
  <defs>
    <style>
      .cls-1 {
        fill: url(#Dégradé_sans_nom_386-5);
      }

      .cls-2 {
        fill: url(#Dégradé_sans_nom_386);
      }

      .cls-3 {
        fill: url(#Dégradé_sans_nom_29);
      }

      .cls-4 {
        fill: url(#Dégradé_sans_nom_386-6);
      }

      .cls-5 {
        fill: url(#Dégradé_sans_nom_386-3);
      }

      .cls-6 {
        fill: url(#Dégradé_sans_nom_386-4);
      }

      .cls-7 {
        fill: url(#Dégradé_sans_nom_386-2);
      }

      .cls-8 {
        fill: url(#Dégradé_sans_nom_386-7);
      }
    </style>
    <linearGradient id="Dégradé_sans_nom_29" data-name="Dégradé sans nom 29" x1="209.03" y1="359.13" x2="209.03" y2="459" gradientUnits="userSpaceOnUse">
      <stop offset="0" stop-color="#1b8ee6"/>
      <stop offset=".58" stop-color="#1b51e6"/>
    </linearGradient>
    <linearGradient id="Dégradé_sans_nom_386" data-name="Dégradé sans nom 386" x1="278.86" y1="401.69" x2="278.86" y2="0" gradientUnits="userSpaceOnUse">
      <stop offset="0" stop-color="#147547"/>
      <stop offset="1" stop-color="#19955b"/>
    </linearGradient>
    <linearGradient id="Dégradé_sans_nom_386-2" data-name="Dégradé sans nom 386" x1="262.27" y1="400.13" x2="262.27" y2="55.61" xlink:href="#Dégradé_sans_nom_386"/>
    <linearGradient id="Dégradé_sans_nom_386-3" data-name="Dégradé sans nom 386" x1="266.8" y1="396.97" x2="266.8" y2="122.14" xlink:href="#Dégradé_sans_nom_386"/>
    <linearGradient id="Dégradé_sans_nom_386-4" data-name="Dégradé sans nom 386" x1="171.62" y1="399.6" x2="171.62" y2="135.23" xlink:href="#Dégradé_sans_nom_386"/>
    <linearGradient id="Dégradé_sans_nom_386-5" data-name="Dégradé sans nom 386" x1="312.88" y1="393.38" x2="312.88" y2="204.9" xlink:href="#Dégradé_sans_nom_386"/>
    <linearGradient id="Dégradé_sans_nom_386-6" data-name="Dégradé sans nom 386" x1="163.02" y1="390.71" x2="163.02" y2="106.36" xlink:href="#Dégradé_sans_nom_386"/>
    <linearGradient id="Dégradé_sans_nom_386-7" data-name="Dégradé sans nom 386" x1="122.32" y1="393.57" x2="122.32" y2="192.77" xlink:href="#Dégradé_sans_nom_386"/>
  </defs>
  <g id="Herbier_de_posidonie" data-name="Herbier de posidonie">
    <ellipse class="cls-3" cx="209.03" cy="409.06" rx="209.03" ry="49.94"/>
    <path class="cls-2" d="M214.03,401.69s-75.02-82.39-47.15-145.27,201.29-110.88,202.84-171.27c1.55-60.39-18.58-85.16-18.58-85.16,0,0,75.87,92.9,32.52,136.26-43.35,43.35-137.29,44.9-184.77,94.45-47.48,49.55,75.71,162.87,15.15,170.98Z"/>
    <path class="cls-7" d="M214.03,395.74s-35.15-115.61,42.27-168.26c77.42-52.65-35.1-100.13,10.32-171.87-20.65,38.19,60.39,98.06,51.1,133.68-9.29,35.61-63.48,28.9-73.81,56.26-10.32,27.35,14.97,128,6.19,138.84-8.77,10.84-29.32,22.19-36.08,11.35Z"/>
    <path class="cls-5" d="M221.21,391.23c-1.46-1.46-6.19-29.94,57.29-83.1,63.48-53.16-59.87-116.13-55.23-153.29,4.65-37.16,89.81-32.52,89.81-32.52,0,0-75.87,17.03-64.52,37.68,11.35,20.65,45.94,30.45,55.23,93.94,9.29,63.48-51.1,168.77-82.58,137.29Z"/>
    <path class="cls-6" d="M216.95,393.29s-67.61,27.87-82.58-33.55c-14.97-61.42,74.84-37.16,71.74-106.84-3.1-69.68-90.32-117.68-90.32-117.68,0,0,116.65,11.87,111.48,92.64-5.16,80.78-74.32,92.13-71.23,111.74,3.1,19.61,60.9,53.68,60.9,53.68Z"/>
    <path class="cls-1" d="M214.03,381.03s11.56-75.87,42.92-99.1c31.35-23.23,186.97-45.29,131.61-77.03,49.16,30.97,15.1,72.39-55.35,81.29-70.45,8.9-80.52,50.71-70.84,73.94,9.68,23.23-3.77,49.16-48.34,20.9Z"/>
    <path class="cls-4" d="M197.6,390.71s-100.65-56.77-81.81-107.35c18.84-50.58,133.42-179.1,53.94-176.52,54.71-7.74,53.68,81.55,16,108.9-37.68,27.35-58.03,51.01-55.74,63.23,6.71,35.87,96,89.03,67.61,111.74Z"/>
    <path class="cls-8" d="M192.95,393.38c-1.7,3.77-156.77-50.8-141.68-99.96,15.1-49.16,75.1-83.61,45.29-100.65,30.19,8.52,25.82,50.55,4.26,72-79.35,78.97,111.87,84.96,92.13,128.61Z"/>
  </g>
</svg>