<?xml version="1.0" encoding="UTF-8"?>
<svg id="New_DA" data-name="New DA" xmlns="http://www.w3.org/2000/svg" xmlns:xlink="http://www.w3.org/1999/xlink" viewBox="0 0 304.79 304.79">
  <defs>
    <style>
      .cls-1 {
        fill: #fff;
      }

      .cls-2 {
        fill: #dd343a;
        font-family: Baloo-Regular, Baloo;
        font-size: 100px;
      }

      .cls-3, .cls-4 {
        fill: none;
      }

      .cls-5 {
        letter-spacing: 0em;
      }

      .cls-6 {
        fill: #d2d3e0;
      }

      .cls-7 {
        fill: url(#Dégradé_sans_nom_86);
      }

      .cls-8 {
        fill: #103496;
      }

      .cls-9 {
        letter-spacing: 0em;
      }

      .cls-4 {
        stroke: #d2d3e0;
        stroke-miterlimit: 10;
        stroke-width: 3px;
      }

      .cls-10 {
        clip-path: url(#clippath);
      }
    </style>
    <clipPath id="clippath">
      <circle class="cls-3" cx="152.39" cy="152.39" r="152.39"/>
    </clipPath>
    <linearGradient id="Dégradé_sans_nom_86" data-name="Dégradé sans nom 86" x1="162.95" y1="376.49" x2="162.95" y2="84.35" gradientUnits="userSpaceOnUse">
      <stop offset="0" stop-color="#103496"/>
      <stop offset="1" stop-color="#1b51e6"/>
    </linearGradient>
  </defs>
  <g id="Planet-2" data-name="Planet">
    <g class="cls-10">
      <path class="cls-8" d="M14.53,91.88c9.69-3.95,40.35-11.72,65.01-7.8,46.38,7.36,55.96,35.06,105.13,19.29,58.75-18.85,102.48-19.14,107.04-9.28,8.16,17.63-19.66,33.35-34.9,34.67-15.24,1.33-166.31,41.74-194.58,30.26-28.27-11.48-49.03-45.06-49.25-50.8-.22-5.74-8.14-12.39,1.55-16.34Z"/>
      <path class="cls-7" d="M14.6,93.79c-8.9,15.36,53.96,35.63,78.4,27.39,24.44-8.25,50.36-41.82,105.72-30.04,55.36,11.78,64.25,27.27,78.04,22.38,21.2-7.51,14.06-22.52,10.38-28.93-3.68-6.41,135.09,120.17,135.09,120.17l-127.8,171.73-323.63-28.27-67.14-162.68S23.5,78.43,14.6,93.79Z"/>
      <path class="cls-4" d="M302.01,181.14s.29-9.17,0-20.06c-.29-10.9-6.18-6.77-20.61-7.07-14.43-.29-5.89-17.37-14.72-30.63-8.83-13.25-23.85-11.19-31.8-5.6-7.95,5.6,12.07,11.48,20.32,20.91,8.25,9.42-23.56,16.2-31.21,13.69-7.66-2.5-8.83-17.82-15.9-21.94-7.07-4.12-13.25.88-9.13,4.42s13.25,3.24,13.25,7.95,6.18,21.5,5.3,28.86c-.88,7.36-8.25,16.49-9.42,21.5-1.18,5.01,3.83,15.02,1.77,28.1-2.06,13.08-27.09,26.38-35.04,23.44-7.95-2.94-7.36-19.14-1.18-25.91,6.18-6.77,2.06-19.73-2.65-27.08-4.71-7.35-23.85-6.49-40.05-3.15-16.2,3.34-18.55-15.71-22.67-21.9-4.12-6.18,7.07-3.24,7.95-20.32.88-17.08,30.92-21.5,30.92-21.5,0,0,16.49,2.06,19.44,4.12,2.94,2.06,18.85-5.01,15.61-8.54-3.24-3.53-7.95-7.36-.29-12.07,7.66-4.71-6.77-15.9-7.36-9.72-.59,6.18-2.36,14.13-6.18,13.25s-10.01,2.94-8.83-2.94c1.18-5.89-5.94-7.66-7.09-4.71-1.15,2.94-7.04,5.89-4.68,7.66,2.36,1.77,7.36,2.36,2.65,4.42-4.71,2.06-14.43,8.25-12.96,4.71,1.47-3.53,5.89-3.53,3.83-5.6-2.06-2.06,1.18-8.54-.59-10.31-1.77-1.77-7.95-.59-10.6-2.06-2.65-1.47-8.83-1.77-8.54,2.36.29,4.12,4.42,5.6,3.53,8.25-.88,2.65-2.94,6.77-8.54,7.36-5.6.59-18.26,4.12-17.67-1.47s-1.18-7.95,4.42-9.13c5.6-1.18,10.9-1.18,9.13-4.12-1.77-2.94.59-3.24-5.6-4.71-6.18-1.47-8.25-2.16-4.42-4.76,3.83-2.6,5.89-8.19,5.89-10.26s5.3-3.24,8.54-2.06,7.36,3.48,9.72-.47c2.36-3.95,7.66-4.24,7.66-8.07s-.88-5.3,5.3-4.42c6.18.88,16.2-.29,16.79-3.83.59-3.53,4.71-5.6-2.06-8.25-6.77-2.65-2.94-5.3-10.01-2.65-7.07,2.65-2.65,2.94-10.01,5.89-7.36,2.94-19.14,4.12-12.37-5.01,6.77-9.13,23.85-25.03,34.45-20.91,10.6,4.12,13.25,26.8,23.85,23.85,10.6-2.94,29.15-8.25,26.21-14.13-2.94-5.89-15.02-12.96,1.47-16.2,16.49-3.24,26.11-9.14,39.36,2.7,13.25,11.84,70.19,57.45,54.87,148.11Z"/>
      <path class="cls-4" d="M52.46,37.34s23.69,20.68,18.68,33.04c-5.01,12.37-20.32,32.1-31.21,32.39-10.9.29-13.55-6.48-16.79,3.53s-14.13,5.01-16.49,13.55c-2.36,8.54-.88,26.5,6.77,30.04,7.66,3.53,22.09,7.07,22.97,12.07.88,5.01,12.07,1.77,8.25,12.07-3.83,10.31-12.66,20.02-12.66,28.86s1.18,12.15-5.01,15.94c-6.18,3.79-3.81,13.62-2.06,16.65,1.75,3.04-73.88-103.69,27.55-198.15Z"/>
      <path class="cls-4" d="M98.8,9.69s5.32,10.63,13.27,8.56c7.95-2.06,14.72-8.25,17.96-2.36s2.06,6.18,14.72,6.18,32.1-3.3,24.15-3.56c-7.95-.27-21.26.59-16.52-2.63,4.74-3.23,12.1-7.64,22.11-4.11,10.01,3.53,19.81,6.29,21.2.59,1.39-5.7-4.62-7.41-4.62-7.41,0,0-48.42-12.66-92.28,4.73Z"/>
      <path class="cls-4" d="M95.15,293.67s.44-9.79,8.39-8.02c7.95,1.77,4.71,6.48,16.2,4.42,11.48-2.06,15.31-2.94,17.67-6.77,2.36-3.83-.29-9.13,11.48-8.25s21.79-2.65,26.8,3.83c5.01,6.48,6.77,5.6,15.31,3.53s9.42-2.94,15.9.59c6.48,3.53,18.63,1.18,18.15,3.39-.48,2.21-54.07,33.72-129.9,8.69"/>
      <g>
        <path class="cls-3" d="M152.39,303.29C69.19,303.29,1.5,235.6,1.5,152.39S69.19,1.5,152.39,1.5s150.89,67.69,150.89,150.89-67.69,150.89-150.89,150.89Z"/>
        <path class="cls-6" d="M152.39,3c39.9,0,77.42,15.54,105.64,43.76,28.22,28.22,43.76,65.73,43.76,105.64s-15.54,77.42-43.76,105.64c-28.22,28.22-65.73,43.76-105.64,43.76s-77.42-15.54-105.64-43.76C18.54,229.81,3,192.3,3,152.39s15.54-77.42,43.76-105.64C74.97,18.54,112.49,3,152.39,3M152.39,0C68.23,0,0,68.23,0,152.39s68.23,152.39,152.39,152.39,152.39-68.23,152.39-152.39S236.56,0,152.39,0h0Z"/>
      </g>
    </g>
    <path class="cls-1" d="M276.93,109.28c-10.4-29.06-30.14-54.55-57.32-70.91-.1-.05-.21-.13-.34-.2-.52-.31-1.06-.62-1.58-.93-.03,0-.05-.03-.08-.04-8.82-4.64-29.79-9.82-33.62,2.32l-.23.78c-1.6,6.64,2.35,14.63,6.96,21.22,4.43,6.31,9.92,11.81,16.09,16.44,13.38,10.09,23.71,23.53,30.09,38.72.13.3,4.37,7.41,8.86,14.43,5.05,7.89,19.14,8.55,26.64,2.94,0,0,11.09-6.41,4.53-24.77ZM257.28,178.95h0c-8.51,1.08-16.13,5.83-20.85,13-1.77,2.69-3.16,4.82-3.24,4.97-5.06,9.48-11.63,17.85-19.31,24.87-.11.1-.33.34-.63.68-5.03,5.82-7.29,13.54-6.33,21.17h0c.27,5.3,3.07,10.25,7.68,12.88,4.6,2.63,9.78,3.06,14.52,2.01,2.65-.59,2.45-.58,5.06-1.42,24.76-8.02,35.29-31.31,43.32-58.54,0,0,1.16-3.94,1.17-3.95.47-1.59-.08-4.75-.54-5.53-4.24-7.26-12.5-11.18-20.83-10.12Z"/>
    <text class="cls-2" transform="translate(64.41 178.77)"><tspan class="cls-9" x="0" y="0">7</tspan><tspan class="cls-5" x="48.5" y="0">0%</tspan></text>
  </g>
</svg>