<?xml version="1.0" encoding="UTF-8"?>
<svg id="New_DA" data-name="New DA" xmlns="http://www.w3.org/2000/svg" xmlns:xlink="http://www.w3.org/1999/xlink" viewBox="0 0 509.43 372.77">
  <defs>
    <style>
      .cls-1 {
        fill: #ff0086;
        stroke: #fff;
        stroke-miterlimit: 10;
      }

      .cls-2 {
        letter-spacing: -.02em;
      }

      .cls-3 {
        fill: #fff;
      }

      .cls-4 {
        fill: none;
      }

      .cls-5 {
        fill: #dd343a;
        font-family: Baloo-Regular, Baloo;
        font-size: 42.77px;
      }

      .cls-6 {
        letter-spacing: 0em;
      }

      .cls-7 {
        fill: #cd2228;
      }

      .cls-8 {
        fill: url(#Dégradé_sans_nom_151);
      }
    </style>
    <linearGradient id="Dégradé_sans_nom_151" data-name="Dégradé sans nom 151" x1="254.72" y1="372.77" x2="254.72" y2="145.66" gradientUnits="userSpaceOnUse">
      <stop offset="0" stop-color="#103496"/>
      <stop offset="1" stop-color="#1b51e6"/>
    </linearGradient>
  </defs>
  <g id="Régul">
    <g>
      <rect class="cls-3" x="212.07" y="97.08" width="13.96" height="98.81" transform="translate(-28.53 56.24) rotate(-13.74)"/>
      <circle class="cls-3" cx="208.94" cy="104.32" r="12.08"/>
      <rect class="cls-7" x="216.04" y="103.49" width="8.73" height="96.32" transform="translate(-29.72 56.71) rotate(-13.74)"/>
      <circle class="cls-7" cx="208.78" cy="104.13" r="8.17"/>
      <line class="cls-1" x1="213.33" y1="118.86" x2="219.13" y2="117.44"/>
      <line class="cls-1" x1="214.87" y1="125.15" x2="220.67" y2="123.74"/>
      <line class="cls-1" x1="216.41" y1="131.45" x2="222.21" y2="130.03"/>
      <line class="cls-1" x1="217.95" y1="137.74" x2="223.75" y2="136.32"/>
      <line class="cls-1" x1="219.49" y1="144.03" x2="225.29" y2="142.61"/>
      <line class="cls-1" x1="221.03" y1="150.32" x2="226.83" y2="148.9"/>
      <line class="cls-1" x1="222.56" y1="156.62" x2="228.37" y2="155.2"/>
      <line class="cls-1" x1="223.96" y1="162.94" x2="229.76" y2="161.52"/>
      <line class="cls-1" x1="225.5" y1="169.24" x2="231.3" y2="167.82"/>
    </g>
    <g>
      <path class="cls-8" d="M490.01,256.96c9.06-8.17,14.75-20.01,14.75-33.17v-5.65c0-28.63-26.53-49.91-54.47-43.63-20.66,4.64-43.11,8.61-59.43,8.61-39.22,0-60.18-37.46-118.74-37.46s-99.4,37.46-154.74,37.46c-20.13,0-38.48-4.64-53.68-10.54-24.48-9.49-51.83,4.01-59.14,29.22l-2.77,9.53c-6.64,22.92,5.82,45.81,26.35,54-3.15,3.93-5.04,8.92-5.04,14.35,0,11.84,8.96,21.6,20.47,22.86-.74,2.24-1.13,4.63-1.13,7.12,0,12.7,10.29,23,22.99,23h9.92c-.31.28-.61.56-.9.85-4.16,4.16-6.73,9.91-6.73,16.26,0,12.7,10.29,23,22.99,23h228c6.35,0,12.11-2.57,16.27-6.74,4.16-4.16,6.73-9.91,6.73-16.26,0-6.79-2.95-12.9-7.63-17.11h28.51c-.31.28-.61.56-.9.85-4.17,4.16-6.74,9.91-6.74,16.26,0,12.7,10.3,23,23,23h24.92c6.35,0,12.1-2.57,16.26-6.74,4.17-4.16,6.74-9.91,6.74-16.26,0-6.79-2.95-12.9-7.64-17.11h15.55c6.35,0,12.1-2.58,16.26-6.74,4.16-4.16,6.73-9.91,6.73-16.26,0-2.43-.38-4.78-1.08-6.98h30.74c6.35,0,12.1-2.58,16.26-6.74,4.17-4.16,6.74-9.91,6.74-16.26,0-11.48-8.42-21-19.42-22.72ZM156.14,326.78h-33.85c.32-.27.62-.56.92-.86,4.16-4.16,6.73-9.91,6.73-16.26,0-2.43-.38-4.78-1.08-6.98h20.71c-.71,2.2-1.09,4.55-1.09,6.98,0,6.8,2.96,12.92,7.66,17.12Z"/>
      <g>
        <path class="cls-3" d="M35.49,190.7c13.3.05,22.08,6.48,21.55,7.2-.53.72-10.44-4.24-23.72-3.82-13.28.43-18.9,5.22-18.57,4.27.33-.95,7.44-7.71,20.74-7.65Z"/>
        <path class="cls-3" d="M28.47,187.23c9.9-2.2,17.74.69,17.3,1.32-.44.63-9.46-.99-18.77,1.26-9.31,2.25-13.38,5.87-13.15,5.05.23-.82,4.72-5.43,14.62-7.63Z"/>
        <path class="cls-3" d="M41.31,183.61c3.19.23,5.46,1.14,5.19,1.52-.27.39-3,.13-6.19-.07-3.19-.2-5.47-.33-5.2-.75.26-.42,3.01-.94,6.2-.7Z"/>
        <path class="cls-3" d="M51.34,176.7c11.62,4.75,20.83,15.32,20.03,16.06-.8.74-10.15-8.44-22.92-11.68-12.77-3.23-23.73-.65-22.91-2.59.82-1.93,14.18-6.55,25.8-1.8Z"/>
        <path class="cls-3" d="M37.52,179.96c8.57-.17,14.76,2.82,14.46,3.29-.3.47-7.29-1.56-15.72-1.23s-14.56,2.34-14.29,1.61c.27-.73,6.98-3.5,15.56-3.67Z"/>
        <path class="cls-3" d="M53.43,190.42c7.05,2.94,11.5,7.52,10.98,7.92s-5.75-2.91-12.66-5.4c-6.91-2.49-13.41-3.73-12.89-4.49.52-.76,7.51-.98,14.56,1.97Z"/>
        <path class="cls-3" d="M21.36,190.07c2.79-1.16,5.95-2.66,6.56-3.73.61-1.07-1.83-1.37-4.85-.33-3.03,1.03-5.26,3.06-5.64,4.27-.38,1.2,1.14.96,3.93-.2Z"/>
        <path class="cls-3" d="M32.15,196.24c5.72-.34,10.19,1.48,9.87,2.02-.32.53-6.24.06-10.98.11s-8.37.57-8.15,0,3.54-1.8,9.25-2.14Z"/>
        <path class="cls-3" d="M45,173.62c1.91.29,3.55.39,3.79.01.24-.37-.99-1.14-2.88-1.5s-3.7-.15-3.96.3c-.26.45,1.14.9,3.05,1.19Z"/>
        <path class="cls-3" d="M52.44,179.14c4.03,1.82,6.89,4.6,6.18,5.48-.71.88-4.52-.34-8.72-1.64-4.2-1.3-7.53-2.44-6.72-3.68.81-1.24,5.24-1.99,9.27-.17Z"/>
        <path class="cls-3" d="M49.53,187.05c4.42,1.38,7.43,3.66,7.05,4.15-.38.49-3.94-.74-8.49-2.05-4.54-1.3-8.3-2.04-7.88-2.65.42-.61,4.89-.83,9.32.55Z"/>
        <path class="cls-3" d="M26.53,192.96c4.84-1.05,10-1.85,10.74-2.94s-3.09-2.36-8.39-1.28c-5.3,1.07-9.05,3.74-9.52,4.92-.47,1.18,2.33.36,7.17-.69Z"/>
      </g>
      <g>
        <path class="cls-3" d="M157.86,206.97c10.95-2.27,32.72-12,32.72-12,.29.39-20.34,13.24-30.96,15.91-12.23,3.07-42.37-2.02-42.37-2.02.08-.39,27.62.81,40.61-1.89Z"/>
        <path class="cls-3" d="M141.05,203.19c15.33-.34,25.66-3.95,26.11-3.18.45.77-10.25,6.39-25.8,6.27-10.21-.08-30.54-5.58-30.54-5.58.04-.15,20.04,2.71,30.23,2.49Z"/>
        <path class="cls-3" d="M155.96,197.82c3.98-.88,7.12-1.51,7.35-1.02s-2.65,1.93-6.77,2.84c-4.12.91-7.8.88-7.89.37-.09-.51,3.33-1.31,7.31-2.18Z"/>
        <path class="cls-3" d="M158.54,186.49c12.78-4.2,18.97-10.2,20.39-9.01,1.42,1.2-4.39,11.01-18.52,14.69-9.63,2.51-30.43-.39-30.43-.39.07-.5,19.26-2.24,28.57-5.3Z"/>
        <path class="cls-3" d="M147.55,194.84c10.76-1.21,17.84-3.96,18.16-3.34.32.62-6.63,4.5-17.89,5.76-11.26,1.26-21.81-1.11-21.64-1.77s10.61.57,21.37-.65Z"/>
        <path class="cls-3" d="M176.19,195.25c8.67-4.62,14.42-9.25,15.43-8.63,1.01.62-3.53,6.64-12.83,11.59-9.29,4.94-19.14,6.28-19.54,5.34-.4-.94,8.26-3.67,16.93-8.29Z"/>
        <path class="cls-3" d="M129.1,203.58c5.69.59,10.01-.5,9.97-1.73-.04-1.23-4.11-2.16-9.43-2.74-5.31-.57-10.12-.62-10.46.6-.34,1.22,4.23,3.28,9.92,3.87Z"/>
        <path class="cls-3" d="M160.94,213.1c9.41-2.07,16.43-4.61,16.89-4.1s-6.05,4.02-15.76,6.19c-9.71,2.17-18.59,1.95-18.75,1.34-.16-.62,8.21-1.36,17.62-3.42Z"/>
        <path class="cls-3" d="M150.83,186.92c1.94-.36,3.37-1.13,3.3-1.58s-1.54-.45-3.4-.09c-1.87.36-3.48.93-3.49,1.39,0,.46,1.65.65,3.59.28Z"/>
        <path class="cls-3" d="M161.59,187.75c4.42-1.68,8.06-2.43,8.94-1.12.89,1.31-1.77,4.38-6.77,6.22-5.01,1.84-9.96,1.54-10.26.07-.3-1.47,3.67-3.49,8.09-5.17Z"/>
        <path class="cls-3" d="M168.52,196.28c5.57-2.28,9.84-4.2,10.45-3.56.61.64-2.91,3.74-8.8,6.15-5.88,2.4-11.6,3-11.89,2.23s4.68-2.54,10.24-4.82Z"/>
        <path class="cls-3" d="M144.6,210.4c9.21-.55,15.4-3.38,14.81-4.73-.59-1.34-7.21-.86-15.74-.41-8.53.45-16.19.64-16.28,2.09-.08,1.44,8,3.6,17.21,3.05Z"/>
      </g>
      <g>
        <path class="cls-3" d="M307.04,182.88c13.14,5.46,20.84,13.01,20.02,14.06-.82,1.06-9.55-4.48-22.29-9.66-12.73-5.18-24.72-7.79-24.31-9.13.41-1.34,13.44-.74,26.58,4.73Z"/>
        <path class="cls-3" d="M299.55,172.89c11.17,3.5,18.5,8.59,17.92,9.44-.57.85-8.66-2.69-19.59-6.03-10.93-3.34-20.62-5.13-20.28-6.15.33-1.02,10.78-.77,21.95,2.73Z"/>
        <path class="cls-3" d="M313.79,173.63c3.29,1.48,5.52,3.24,5.15,3.76-.37.52-3.17-.38-6.41-1.82-3.25-1.45-5.74-2.92-5.41-3.48.33-.55,3.39.06,6.68,1.54Z"/>
        <path class="cls-3" d="M326.76,166.13c7.65,4.16,20.87,19.09,20.87,19.09-.66.71-17.28-9.07-25.6-13.36-8.39-4.32-26.02-13.85-26.02-13.85.27-.92,21.95,3.33,30.75,8.12Z"/>
        <path class="cls-3" d="M310.23,166.41c9.62,3.79,16.03,8.49,15.51,9.13-.53.64-7.68-2.9-17.15-6.56-9.47-3.66-17.72-6.04-17.35-6.81.37-.77,9.37.45,18.99,4.24Z"/>
        <path class="cls-3" d="M325.35,185.94c7.06,4.48,11.24,9.48,10.44,10.34-.8.85-6.15-2.6-13.02-6.9-6.87-4.3-12.79-7.86-12.17-8.89.61-1.04,7.69.97,14.76,5.45Z"/>
        <path class="cls-3" d="M290.57,171.53c4.01.92,7.65.77,8.35-.59.69-1.36-1.93-3.48-6.06-4.48-4.13-1-8.1-.43-8.66,1.01-.57,1.44,2.37,3.14,6.38,4.06Z"/>
        <path class="cls-3" d="M303.65,189.92c5.35,2.16,9,4.84,8.65,5.48-.35.64-4.49-.96-9.74-3.06-5.25-2.1-9.68-3.91-9.42-4.6.25-.7,5.17.03,10.52,2.18Z"/>
        <path class="cls-3" d="M319.62,160.45c2.17.99,4.19,1.49,4.58,1.03.39-.45-1.03-1.7-3.22-2.72-2.19-1.02-4.32-1.4-4.68-.92-.36.48,1.15,1.61,3.32,2.61Z"/>
        <path class="cls-3" d="M327.56,169.68c4.81,2.74,7.34,6.31,6.07,7.66-1.27,1.35-5.73.11-10.38-2.45-4.65-2.56-7.85-5.58-6.74-7.11,1.1-1.52,6.23-.84,11.05,1.9Z"/>
        <path class="cls-3" d="M321.82,180.71c4.61,2.6,7.51,5.59,6.9,6.34-.62.74-4.45-.97-8.96-3.48-4.51-2.51-8.06-4.92-7.54-5.75.52-.83,5,.3,9.6,2.9Z"/>
        <path class="cls-3" d="M297.39,181.5c5.7,1.78,10.62,2.45,11.46.96.84-1.5-2.88-4.72-8.81-6.65-5.92-1.93-11.61-1.67-12.23-.03-.62,1.64,3.87,3.93,9.57,5.72Z"/>
      </g>
    </g>
    <rect class="cls-4" x="27.37" width="424.23" height="264.2"/>
    <ellipse class="cls-3" cx="107.84" cy="106.67" rx="27.79" ry="16.84"/>
    <ellipse class="cls-3" cx="119.85" cy="112.81" rx="22.62" ry="9.36"/>
    <ellipse class="cls-3" cx="105.15" cy="120.02" rx="22.62" ry="9.36"/>
    <ellipse class="cls-3" cx="119.85" cy="126.26" rx="28.63" ry="6.24"/>
    <ellipse class="cls-3" cx="107.84" cy="139.27" rx="17.32" ry="5.7"/>
    <ellipse class="cls-3" cx="125.16" cy="142.67" rx="17.32" ry="2.31"/>
    <ellipse class="cls-3" cx="114.95" cy="154.01" rx="10.2" ry="3.45"/>
    <ellipse class="cls-3" cx="310.39" cy="111.28" rx="21.38" ry="16.23"/>
    <ellipse class="cls-3" cx="313.85" cy="118.21" rx="21.38" ry="16.23"/>
    <ellipse class="cls-3" cx="303.26" cy="130.44" rx="19.05" ry="12.23"/>
    <ellipse class="cls-3" cx="316.41" cy="141.26" rx="13.15" ry="5.54"/>
    <ellipse class="cls-3" cx="337.78" cy="132.48" rx="9.09" ry="4.45"/>
    <ellipse class="cls-3" cx="415.28" cy="122.03" rx="22.01" ry="14.9"/>
    <ellipse class="cls-3" cx="410.24" cy="132.35" rx="15.64" ry="10.32"/>
    <ellipse class="cls-3" cx="417.39" cy="141.58" rx="12.45" ry="4.12"/>
    <ellipse class="cls-3" cx="410.24" cy="150.18" rx="8.07" ry="3.14"/>
    <text class="cls-5" transform="translate(119.85 248.32)"><tspan x="0" y="0">1er </tspan><tspan class="cls-2" x="66.42" y="0">r</tspan><tspan x="83.18" y="0">égula</tspan><tspan class="cls-6" x="191.09" y="0">t</tspan><tspan x="207.94" y="0">eur</tspan></text>
  </g>
</svg>