<?xml version="1.0" encoding="UTF-8"?>
<svg id="New_DA" data-name="New DA" xmlns="http://www.w3.org/2000/svg" xmlns:xlink="http://www.w3.org/1999/xlink" viewBox="0 0 297.96 598.17">
  <defs>
    <style>
      .cls-1 {
        stroke: url(#Dégradé_sans_nom_261-5);
        stroke-width: 10px;
      }

      .cls-1, .cls-2, .cls-3 {
        fill: none;
        stroke-linecap: round;
        stroke-linejoin: round;
      }

      .cls-2 {
        stroke: url(#Dégradé_sans_nom_261);
        stroke-width: 20px;
      }

      .cls-4 {
        fill: url(#Dégradé_sans_nom_261-2);
      }

      .cls-5 {
        fill: #d2d3e0;
      }

      .cls-3 {
        stroke: url(#Dégradé_sans_nom_261-3);
        stroke-width: 30px;
      }

      .cls-6 {
        fill: url(#Dégradé_sans_nom_261-6);
      }

      .cls-7 {
        fill: #cd2228;
      }

      .cls-8 {
        fill: url(#Dégradé_sans_nom_261-4);
      }
    </style>
    <linearGradient id="Dégradé_sans_nom_261" data-name="Dégradé sans nom 261" x1="23.98" y1="354.11" x2="43.98" y2="354.11" gradientUnits="userSpaceOnUse">
      <stop offset="0" stop-color="#cd2228"/>
      <stop offset="1" stop-color="#dd343a"/>
    </linearGradient>
    <linearGradient id="Dégradé_sans_nom_261-2" data-name="Dégradé sans nom 261" x1="0" y1="282.88" x2="67.96" y2="282.88" xlink:href="#Dégradé_sans_nom_261"/>
    <linearGradient id="Dégradé_sans_nom_261-3" data-name="Dégradé sans nom 261" x1="231.36" y1="229.99" x2="261.36" y2="229.99" xlink:href="#Dégradé_sans_nom_261"/>
    <linearGradient id="Dégradé_sans_nom_261-4" data-name="Dégradé sans nom 261" x1="194.76" y1="124.59" x2="297.96" y2="124.59" xlink:href="#Dégradé_sans_nom_261"/>
    <linearGradient id="Dégradé_sans_nom_261-5" data-name="Dégradé sans nom 261" x1="49.51" y1="77.79" x2="59.51" y2="77.79" xlink:href="#Dégradé_sans_nom_261"/>
    <linearGradient id="Dégradé_sans_nom_261-6" data-name="Dégradé sans nom 261" x1="35.94" y1="36.45" x2="73.08" y2="36.45" xlink:href="#Dégradé_sans_nom_261"/>
  </defs>
  <g id="Thermomètre">
    <circle class="cls-5" cx="133.92" cy="523.85" r="74.32"/>
    <path class="cls-5" d="M133.92,553.26c-22.99,0-41.62-18.63-41.62-41.62V41.62C92.3,18.63,110.93,0,133.92,0s41.62,18.63,41.62,41.62v470.02c0,22.99-18.63,41.62-41.62,41.62Z"/>
    <path class="cls-7" d="M133.92,532.45c-11.49,0-20.81-9.32-20.81-20.81V41.62c0-11.49,9.32-20.81,20.81-20.81s20.81,9.32,20.81,20.81v470.02c0,11.49-9.32,20.81-20.81,20.81Z"/>
    <circle class="cls-7" cx="133.92" cy="523.85" r="43.85"/>
    <rect class="cls-5" x="129.62" y="404.89" width="29" height="11.1"/>
    <rect class="cls-5" x="129.62" y="371.38" width="29" height="11.1"/>
    <rect class="cls-5" x="129.62" y="337.87" width="29" height="11.1"/>
    <rect class="cls-5" x="129.62" y="304.36" width="29" height="11.1"/>
    <rect class="cls-5" x="129.62" y="271.08" width="29" height="11.1"/>
    <rect class="cls-5" x="129.62" y="237.8" width="29" height="11.1"/>
    <rect class="cls-5" x="129.62" y="204.52" width="29" height="11.1"/>
    <rect class="cls-5" x="129.62" y="171.01" width="29" height="11.1"/>
    <rect class="cls-5" x="129.62" y="137.5" width="29" height="11.1"/>
    <rect class="cls-5" x="129.62" y="103.99" width="29" height="11.1"/>
    <rect class="cls-5" x="129.62" y="70.71" width="29" height="11.1"/>
    <rect class="cls-5" x="129.62" y="438.4" width="29" height="11.1"/>
    <g>
      <line class="cls-2" x1="33.98" y1="397.58" x2="33.98" y2="310.64"/>
      <path class="cls-4" d="M39.01,255.59l28.16,48.78c2.24,3.87-.56,8.72-5.03,8.72H5.82c-4.47,0-7.27-4.84-5.03-8.72l28.16-48.78c2.24-3.87,7.83-3.87,10.07,0Z"/>
    </g>
    <g>
      <line class="cls-3" x1="246.36" y1="293.49" x2="246.36" y2="166.48"/>
      <path class="cls-8" d="M251.39,82.03l45.78,79.3c2.24,3.87-.56,8.72-5.03,8.72h-91.57c-4.47,0-7.27-4.84-5.03-8.72l45.78-79.3c2.24-3.87,7.83-3.87,10.07,0Z"/>
    </g>
    <g>
      <line class="cls-1" x1="54.51" y1="103.74" x2="54.51" y2="51.85"/>
      <path class="cls-6" d="M59.55,22.51l12.75,22.08c2.24,3.87-.56,8.72-5.03,8.72h-25.5c-4.47,0-7.27-4.84-5.03-8.72l12.75-22.08c2.24-3.87,7.83-3.87,10.07,0Z"/>
    </g>
  </g>
</svg>