<?xml version="1.0" encoding="UTF-8"?>
<svg id="Calque_53" data-name="Calque 53" xmlns="http://www.w3.org/2000/svg" xmlns:xlink="http://www.w3.org/1999/xlink" viewBox="0 0 4301.72 153.2">
  <defs>
    <style>
      .cls-1 {
        fill: url(#Dégradé_sans_nom_56);
      }
    </style>
    <linearGradient id="Dégradé_sans_nom_56" data-name="Dégradé sans nom 56" x1="2150.86" y1="153.2" x2="2150.86" y2="0" gradientUnits="userSpaceOnUse">
      <stop offset="0" stop-color="#184ad1" stop-opacity="0"/>
      <stop offset=".26" stop-color="#103496"/>
      <stop offset="1" stop-color="#1b50e3"/>
    </linearGradient>
  </defs>
  <path class="cls-1" d="M4.72,50.05s116.13-28.1,255.48-30.34c139.35-2.23,55.74,30.34,236.9,30.34s144-25.99,236.9-30.45c92.9-4.45,60.39,18.81,176.52,30.45,116.13,11.63,134.71-46.53,269.42-48.86,134.71-2.33,106.84,65.14,250.84,65.14s148.65-44.39,278.71-46.62c130.06-2.23,153.29,7.01,222.97,14.02,69.68,7.01,88.26-37.31,222.97-32.6,134.71,4.71,130.06,48.91,274.06,44.26,144-4.65,78.97-52,218.32-44.61,139.35,7.39,139.35,67.88,334.45,65.55,195.1-2.33,134.71-36.02,227.61-33.13,92.9,2.89,116.13,44.77,222.97,44.77s120.77-31.44,232.26-38.98c111.48-7.55,74.32,27.35,195.1,25.02,120.77-2.33,65.03-46.71,260.13-44.29s181.16,58.25,181.16,58.25l.22,75.24H.56S-2.24,46.56,4.72,50.05Z"/>
</svg>