<?xml version="1.0" encoding="UTF-8"?>
<svg id="Calque_53" data-name="Calque 53" xmlns="http://www.w3.org/2000/svg" xmlns:xlink="http://www.w3.org/1999/xlink" viewBox="0 0 4300.09 2333.56">
  <defs>
    <style>
      .cls-1 {
        fill: url(#Dégradé_sans_nom_56);
      }
    </style>
    <linearGradient id="Dégradé_sans_nom_56" data-name="Dégradé sans nom 56" x1="2150.04" y1="1978.32" x2="2150.04" y2="681.49" gradientUnits="userSpaceOnUse">
      <stop offset="0" stop-color="#184ad1" stop-opacity="0"/>
      <stop offset=".26" stop-color="#103496"/>
      <stop offset="1" stop-color="#1b50e3"/>
    </linearGradient>
  </defs>
  <path class="cls-1" d="M3.1,781.42s116.13-56.11,255.48-60.57,55.74,60.57,236.9,60.57,144-51.9,236.9-60.79,60.39,37.56,176.52,60.79c116.13,23.23,134.71-92.9,269.42-97.55s106.84,130.06,250.84,130.06,148.65-88.63,278.71-93.09,153.29,14,222.97,28,88.26-74.5,222.97-65.09,130.06,97.67,274.06,88.38,78.97-103.83,218.32-89.08,139.35,135.53,334.45,130.88,134.71-71.93,227.61-66.16,116.13,89.38,222.97,89.38,120.77-62.77,232.26-77.83,74.32,54.61,195.1,49.96,65.03-93.27,260.13-88.44,181.16,116.31,181.16,116.31v1141.16L3.1,1973.67S-3.87,774.45,3.1,781.42Z"/>
</svg>