<?xml version="1.0" encoding="UTF-8"?>
<svg id="New_DA" data-name="New DA" xmlns="http://www.w3.org/2000/svg" xmlns:xlink="http://www.w3.org/1999/xlink" viewBox="0 0 509.43 401.71">
  <defs>
    <style>
      .cls-1 {
        fill: none;
      }

      .cls-2 {
        fill: #d2d3e0;
      }

      .cls-3 {
        fill: url(#Dégradé_sans_nom_372);
      }
    </style>
    <linearGradient id="Dégradé_sans_nom_372" data-name="Dégradé sans nom 372" x1="254.72" y1="401.71" x2="254.72" y2="174.6" gradientUnits="userSpaceOnUse">
      <stop offset="0" stop-color="#103496"/>
      <stop offset="1" stop-color="#147547"/>
    </linearGradient>
  </defs>
  <g id="Acidification">
    <path class="cls-3" d="M490.01,285.9c9.06-8.17,14.75-20.01,14.75-33.17v-5.65c0-28.63-26.53-49.91-54.47-43.63-20.66,4.64-43.11,8.61-59.43,8.61-39.22,0-60.18-37.46-118.74-37.46s-99.4,37.46-154.74,37.46c-20.13,0-38.48-4.64-53.68-10.54-24.48-9.49-51.83,4.01-59.14,29.22l-2.77,9.53c-6.64,22.92,5.82,45.81,26.35,54-3.15,3.93-5.04,8.92-5.04,14.35,0,11.84,8.96,21.6,20.47,22.86-.74,2.24-1.13,4.63-1.13,7.12,0,12.7,10.29,23,22.99,23h9.92c-.31.28-.61.56-.9.85-4.16,4.16-6.73,9.91-6.73,16.26,0,12.7,10.29,23,22.99,23h228c6.35,0,12.11-2.57,16.27-6.74,4.16-4.16,6.73-9.91,6.73-16.26,0-6.79-2.95-12.9-7.63-17.11h28.51c-.31.28-.61.56-.9.85-4.17,4.16-6.74,9.91-6.74,16.26,0,12.7,10.3,23,23,23h24.92c6.35,0,12.1-2.57,16.26-6.74,4.17-4.16,6.74-9.91,6.74-16.26,0-6.79-2.95-12.9-7.64-17.11h15.55c6.35,0,12.1-2.58,16.26-6.74,4.16-4.16,6.73-9.91,6.73-16.26,0-2.43-.38-4.78-1.08-6.98h30.74c6.35,0,12.1-2.58,16.26-6.74,4.17-4.16,6.74-9.91,6.74-16.26,0-11.48-8.42-21-19.42-22.72ZM156.14,355.72h-33.85c.32-.27.62-.56.92-.86,4.16-4.16,6.73-9.91,6.73-16.26,0-2.43-.38-4.78-1.08-6.98h20.71c-.71,2.2-1.09,4.55-1.09,6.98,0,6.8,2.96,12.92,7.66,17.12Z"/>
    <rect class="cls-1" x="33.62" y="24.53" width="424.23" height="264.2"/>
    <g>
      <circle class="cls-2" cx="89.29" cy="223.89" r="7.1"/>
      <circle class="cls-2" cx="96.04" cy="230.63" r="5.32"/>
      <circle class="cls-2" cx="105.07" cy="219.89" r="7.16"/>
      <circle class="cls-2" cx="118.92" cy="222.94" r="1.89"/>
      <circle class="cls-2" cx="120.75" cy="244.47" r="8.52"/>
      <circle class="cls-2" cx="142.91" cy="228.08" r="4.19"/>
      <circle class="cls-2" cx="144.57" cy="217.29" r="1.66"/>
      <circle class="cls-2" cx="183.52" cy="217.28" r="11.32"/>
      <circle class="cls-2" cx="171.89" cy="224.26" r="5.31"/>
      <circle class="cls-2" cx="165.71" cy="241.28" r="3.19"/>
      <circle class="cls-2" cx="179" cy="239.88" r="1.8"/>
      <circle class="cls-2" cx="211.39" cy="193.47" r="3.39"/>
      <circle class="cls-2" cx="218.7" cy="204.84" r="3.92"/>
      <circle class="cls-2" cx="231.81" cy="196.47" r="6.39"/>
      <circle class="cls-2" cx="241.87" cy="187.57" r="3.68"/>
      <circle class="cls-2" cx="252.04" cy="189.41" r="1.84"/>
      <circle class="cls-2" cx="238.95" cy="194.97" r="1.5"/>
      <circle class="cls-2" cx="249.66" cy="206.8" r="1.96"/>
      <circle class="cls-2" cx="230.26" cy="220.47" r="4.84"/>
      <circle class="cls-2" cx="216.28" cy="233.49" r="4.89"/>
      <circle class="cls-2" cx="234.77" cy="235.78" r="2.3"/>
      <circle class="cls-2" cx="213.83" cy="215.17" r="2.44"/>
      <circle class="cls-2" cx="246.62" cy="213.8" r="1.07"/>
      <circle class="cls-2" cx="272.65" cy="202.47" r="3.48"/>
      <circle class="cls-2" cx="276.13" cy="189.31" r="3.48"/>
      <circle class="cls-2" cx="305.46" cy="190.37" r="6.48"/>
      <circle class="cls-2" cx="297.47" cy="198.16" r="4.69"/>
      <circle class="cls-2" cx="319.49" cy="201.31" r="2.32"/>
      <circle class="cls-2" cx="311.36" cy="203.63" r="2.71"/>
      <circle class="cls-2" cx="302.94" cy="208.33" r="5.47"/>
      <circle class="cls-2" cx="289.62" cy="217.82" r="2.65"/>
      <circle class="cls-2" cx="314.04" cy="223.21" r="5.39"/>
      <circle class="cls-2" cx="343.77" cy="213.64" r="5.31"/>
      <circle class="cls-2" cx="373.18" cy="226.97" r="3.76"/>
      <circle class="cls-2" cx="270.81" cy="226.95" r="1.65"/>
      <circle class="cls-2" cx="250.3" cy="251.44" r="3.68"/>
      <circle class="cls-2" cx="270.81" cy="249.41" r="1.65"/>
      <circle class="cls-2" cx="298.97" cy="269.82" r="3.1"/>
      <circle class="cls-2" cx="313.15" cy="251.2" r="1.79"/>
      <circle class="cls-2" cx="345.62" cy="273.5" r="3.68"/>
      <circle class="cls-2" cx="227.07" cy="283.86" r="1.65"/>
      <circle class="cls-2" cx="382.56" cy="241.57" r="5.62"/>
      <circle class="cls-2" cx="414.85" cy="221.11" r="5.94"/>
      <circle class="cls-2" cx="405.23" cy="218.85" r="3.68"/>
      <circle class="cls-2" cx="394.36" cy="223.21" r="2.1"/>
      <circle class="cls-2" cx="448.24" cy="218.78" r="6.05"/>
      <circle class="cls-2" cx="466.54" cy="211.82" r="3.06"/>
      <circle class="cls-2" cx="450.75" cy="209.31" r="2.51"/>
      <circle class="cls-2" cx="434.18" cy="217.29" r="1.66"/>
      <circle class="cls-2" cx="452.09" cy="237.33" r="3.85"/>
      <circle class="cls-2" cx="468.42" cy="226.14" r="1.88"/>
      <circle class="cls-2" cx="426.89" cy="238.68" r="2.89"/>
      <circle class="cls-2" cx="339.73" cy="238.61" r="1.27"/>
      <circle class="cls-2" cx="184.08" cy="247.76" r="3.29"/>
      <circle class="cls-2" cx="78.58" cy="241.7" r="3.61"/>
      <circle class="cls-2" cx="63.6" cy="220.89" r="2.04"/>
      <circle class="cls-2" cx="70.35" cy="215.22" r="1.58"/>
    </g>
    <path class="cls-2" d="M292.1,17.41c.64.65,7.46,7.81,6.97,17.98-3.38,70.34-108.37,63.79-108.37,72.76s43.55,14.71,43.55,39.69-43.39,38.05-64.55,44.2c-.21.06-.42.12-.63.18-11.69,3.18-19.83-11.72-10.64-19.62,4.38-3.76,7.12-8.1,7.22-13.09.52-26.32-127.48-23.23-127.48-65.03s147.68,4.9,147.68-60.26c0-.87.97-9.69,5.78-14.64C196.94,14.12,211.52.66,241.53.03c31.41-.67,45.11,11.88,50.57,17.39Z"/>
    <path class="cls-2" d="M461.08,77.86c-2.21-2.65-4.84-5.28-9.97-7.65-8.61-3.98-18.55-10.24-39.58-10.65-21.94-.42-33.09,5.29-41.52,10.84-8.52,5.61-9.58,8.9-10.45,10.84-.64,1.42-.23,4.68,6.19,6.19,14.7,3.46,22.13,7.76,21.97,15.68-.54,26.32-86.75,26.15-95.61,32.39-12.47,8.77-8.09,26.68,14.05,29.68,11.51,1.56,27.81,7.89,41.15,13.79,3.61,1.6,6.82-2.92,4.11-5.79-6.23-6.6-10.22-12.99-4.5-14.71,12.73-3.81,112.79,1.84,116-73.65.07-1.74.1-4.64-1.84-6.96Z"/>
  </g>
</svg>