<?xml version="1.0" encoding="UTF-8"?>
<svg id="New_DA" data-name="New DA" xmlns="http://www.w3.org/2000/svg" xmlns:xlink="http://www.w3.org/1999/xlink" viewBox="0 0 502.28 733.63">
  <defs>
    <style>
      .cls-1 {
        fill: url(#Dégradé_sans_nom_29);
      }

      .cls-2 {
        fill: url(#Dégradé_sans_nom_21);
      }
    </style>
    <linearGradient id="Dégradé_sans_nom_29" data-name="Dégradé sans nom 29" x1="209.03" y1="633.76" x2="209.03" y2="733.63" gradientUnits="userSpaceOnUse">
      <stop offset="0" stop-color="#1b8ee6"/>
      <stop offset=".58" stop-color="#1b51e6"/>
    </linearGradient>
    <linearGradient id="Dégradé_sans_nom_21" data-name="Dégradé sans nom 21" x1="40.55" y1="331.66" x2="502.28" y2="331.66" gradientUnits="userSpaceOnUse">
      <stop offset="0" stop-color="#cd2228"/>
      <stop offset="1" stop-color="#840d16"/>
    </linearGradient>
  </defs>
  <g id="Coral">
    <ellipse class="cls-1" cx="209.03" cy="683.69" rx="209.03" ry="49.94"/>
    <path class="cls-2" d="M156.51,645.07s57.84-161.34,61.07-195.64c3.23-34.3-134.02-2.43-162.94-56.69-28.93-54.25,30.3-105.48,34.94-130.38s-59.23-84.13-47.61-98.06c11.61-13.94,34.84-20.9,45.29,0,10.45,20.9,56.9,87.52,47.61,110.54-9.29,23.01-45.29,46.12-37.16,66.5,8.13,20.38,27.87,37.8,68.52,26.19,40.65-11.61,48.77-127.88,4.65-159.75-44.13-31.87-4.65-113.16,6.97-136.38,11.61-23.23-41.81-15.1-59.23-32.52S121-.53,129.09,0s71.97,23.77,82.42,33.06c10.45,9.29-12.77,40.65-10.45,59.23,2.32,18.58,45.29,18.58,48.77,6.97,3.48-11.61-10.45-42.97,1.16-46.45,11.61-3.48,39.48-2.32,33.68,29.03-5.81,31.35-9.29,61.55-40.65,58.06-31.35-3.48-48.77-12.77-52.26-6.97-3.48,5.81-15.1,49.94-2.32,53.42,12.77,3.48,49.94,11.28,55.74,68.93,5.81,57.65,80.13,67.08,77.81,29.27-2.32-37.81-49.94-101.68-33.68-115.62s29.03-17.42,62.71-23.23c33.68-5.81,19.74-37.16,15.1-61.55s24.39-40.65,36-24.39c11.61,16.26,23.23,59.23,19.74,81.29-3.48,22.06-84.77,34.84-85.94,48.77-1.16,13.94,10.45,52.09,20.9,53.92,10.45,1.83,59.23-9.79,59.23-16.76s-24.39-40.65-15.1-47.61c9.29-6.97,24.39-22.06,32.52-8.13,8.13,13.94,31.35,68.32,26.71,81.77-4.65,13.45-80.13,12.16-90.58,27.9-10.45,15.74,6.97,51.27-15.1,56.73-22.06,5.46-76.65,1.98-75.48,15.92,1.16,13.94-5.81,37.67,15.1,39.16,20.9,1.49,112.65,5.52,114.97-7.53s-15.1-57.73,6.97-62.68c22.06-4.95,81.29-15.95,82.45,0,1.16,15.95,9.29,35.69-9.29,35.69s-38.32-4.26-42.97,6.58c-4.65,10.84-2.32,42.98,2.32,49.56,4.65,6.57,40.65,8.89,40.65,23.99s-3.48,38.32-12.77,38.32-54.58-38.5-76.65-43.64c-22.06-5.14-91.74-12.1-102.19,5.31-10.45,17.42-69.68,116.13-49.94,166.06,8.32,21.05,16.65,33.44,23.49,40.72,4.46,4.74,1.64,12.53-4.81,13.36-38.7,4.96-117.31,12.04-110.85-13.43Z"/>
  </g>
</svg>