<?xml version="1.0" encoding="UTF-8"?>
<svg id="New_DA" data-name="New DA" xmlns="http://www.w3.org/2000/svg" viewBox="0 0 181.4 85.4">
  <defs>
    <style>
      .cls-1 {
        fill: #1aca78;
      }

      .cls-2 {
        fill: #147547;
      }
    </style>
  </defs>
  <g id="Fish1">
    <path class="cls-1" d="M122.21,32.69S129.87,0,163.73,0c-6.18,16.2-4.42,38.58-4.42,38.58,0,0,21.5,4.42,22.09,18.85-16.28-.13-30.41,21.87-41.3,21.87-9.71,0-19.36-1.2-19.36-16.86,0-36.52,1.47-29.74,1.47-29.74Z"/>
    <path class="cls-2" d="M135.62,35.85c0,39.78-28.34,49.55-63.47,49.55S11.19,61.25,0,36.07C9.72,12.96,36.87,2.5,72,2.5s63.61,14.93,63.61,33.35Z"/>
    <path class="cls-1" d="M56.71,56.67c7.1,7.18,21.57,17.76,41.86,12.46-5.77-7.86-8.75-13.07-10.29-16.39-1.39-3-4.55-4.78-7.84-4.49l-21.33,1.89c-3.24.29-4.69,4.21-2.4,6.52Z"/>
    <circle cx="39.46" cy="35.93" r="8.02"/>
  </g>
</svg>