<?xml version="1.0" encoding="UTF-8"?>
<svg id="New_DA" data-name="New DA" xmlns="http://www.w3.org/2000/svg" viewBox="0 0 96.17 163.13">
  <defs>
    <style>
      .cls-1 {
        fill: #e07679;
      }

      .cls-2 {
        fill: #cd2228;
      }
    </style>
  </defs>
  <g id="Fish3">
    <path class="cls-1" d="M13.27,123.61S-4.1,111.25.91,97.11c5.01-14.13,9.53,2.06,20.37-10.01,10.84-12.07-3.59-14.43,1.42-24.44,5.01-10.01,15.61,4.42,19.73-4.71s-3.24-10.31-1.47-19.14c1.77-8.83,15.61-4.71,13.55-15.9-2.06-11.19-2.94-21.79-10.31-21.79,17.08-2.65,28.56-.59,26.21,6.48s5.89,4.42,4.71,12.07-5.6,4.86-5.6,12.74S13.27,123.61,13.27,123.61Z"/>
    <path class="cls-2" d="M75.53,139.95c-19.28,21.46-49.83,31.18-61.08,15.34C-12.05,118.02,49.2,40.5,84.25,77.58c13.35,14.12,10.55,40.91-8.73,62.37Z"/>
    <path class="cls-2" d="M21.28,95.57C65.4,43.89,59.8,15.54,59.8,15.54c0,0,67.96,54.85,18.08,121.66"/>
    <circle cx="30.94" cy="134.22" r="8.25"/>
    <path class="cls-1" d="M51.85,107.66s12.37-52.97-6.18-62.09c35.04,10.31,36.81,32.59,6.18,62.09Z"/>
  </g>
</svg>