<?xml version="1.0" encoding="UTF-8"?>
<svg id="New_DA" data-name="New DA" xmlns="http://www.w3.org/2000/svg" xmlns:xlink="http://www.w3.org/1999/xlink" viewBox="0 0 577.75 634.52">
  <defs>
    <style>
      .cls-1 {
        fill: #fff;
      }

      .cls-2 {
        fill: url(#Dégradé_sans_nom_265-2);
      }

      .cls-3 {
        fill: #d2d3e0;
      }

      .cls-4 {
        fill: url(#Dégradé_sans_nom_288-2);
      }

      .cls-5 {
        stroke-width: 1.5px;
      }

      .cls-5, .cls-6 {
        fill: none;
        stroke: #fff;
        stroke-linecap: round;
        stroke-miterlimit: 10;
      }

      .cls-7 {
        fill: #840d16;
      }

      .cls-6 {
        stroke-width: 3px;
      }

      .cls-8 {
        fill: url(#Dégradé_sans_nom_288);
      }

      .cls-9 {
        fill: #cd2228;
      }

      .cls-10 {
        fill: #1b8ee6;
      }

      .cls-11 {
        fill: url(#Dégradé_sans_nom_265);
      }
    </style>
    <linearGradient id="Dégradé_sans_nom_265" data-name="Dégradé sans nom 265" x1="145.43" y1="408.69" x2="145.43" y2="624.03" gradientUnits="userSpaceOnUse">
      <stop offset="0" stop-color="#1b8ee6"/>
      <stop offset=".15" stop-color="#1b51e6"/>
    </linearGradient>
    <linearGradient id="Dégradé_sans_nom_288" data-name="Dégradé sans nom 288" x1="145.43" y1="408.69" x2="145.43" y2="623.42" gradientUnits="userSpaceOnUse">
      <stop offset="0" stop-color="#1b8ee6"/>
      <stop offset=".16" stop-color="#103799"/>
      <stop offset="1" stop-color="#103496"/>
    </linearGradient>
    <linearGradient id="Dégradé_sans_nom_265-2" data-name="Dégradé sans nom 265" x1="103" y1="408.81" x2="103" y2="624.58" xlink:href="#Dégradé_sans_nom_265"/>
    <linearGradient id="Dégradé_sans_nom_288-2" data-name="Dégradé sans nom 288" x1="103" y1="408.81" x2="103" y2="623.22" xlink:href="#Dégradé_sans_nom_288"/>
  </defs>
  <g id="Glacier">
    <polygon class="cls-9" points="283.18 0 577.75 619.31 0 619.32 283.18 0"/>
    <g>
      <polygon class="cls-9" points="564.61 627.52 577.75 619.31 551.47 619.31 564.61 627.52"/>
      <polygon class="cls-9" points="538.32 627.52 551.47 619.31 525.18 619.31 538.32 627.52"/>
      <polygon class="cls-9" points="512.04 627.52 525.18 619.31 498.9 619.31 512.04 627.52"/>
      <polygon class="cls-9" points="485.75 626.99 498.9 618.77 472.61 618.77 485.75 626.99"/>
      <polygon class="cls-9" points="459.47 627.52 472.61 619.31 446.32 619.31 459.47 627.52"/>
      <polygon class="cls-9" points="433.18 627.52 446.32 619.31 420.04 619.31 433.18 627.52"/>
      <polygon class="cls-9" points="406.89 627.52 420.04 619.31 393.75 619.31 406.89 627.52"/>
      <polygon class="cls-9" points="380.61 626.99 393.75 618.77 367.46 618.77 380.61 626.99"/>
      <polygon class="cls-9" points="354.32 627.52 367.46 619.31 341.18 619.31 354.32 627.52"/>
      <polygon class="cls-9" points="328.03 627.52 341.18 619.31 314.89 619.31 328.03 627.52"/>
      <polygon class="cls-9" points="301.75 627.52 314.89 619.31 288.6 619.31 301.75 627.52"/>
      <polygon class="cls-9" points="275.46 627.52 288.6 619.31 262.32 619.31 275.46 627.52"/>
      <polygon class="cls-9" points="249.17 627.52 262.32 619.31 236.03 619.31 249.17 627.52"/>
      <polygon class="cls-9" points="222.89 627.52 236.03 619.31 209.75 619.31 222.89 627.52"/>
      <polygon class="cls-9" points="196.6 627.52 209.75 619.31 183.46 619.31 196.6 627.52"/>
      <polygon class="cls-9" points="170.1 627.52 183.24 619.31 156.95 619.31 170.1 627.52"/>
      <polygon class="cls-9" points="144.57 627.52 157.72 619.31 131.43 619.31 144.57 627.52"/>
      <polygon class="cls-9" points="118.29 627.52 131.43 619.31 105.15 619.31 118.29 627.52"/>
      <polygon class="cls-9" points="92 627.52 105.15 619.31 78.86 619.31 92 627.52"/>
      <polygon class="cls-9" points="65.72 627.52 78.86 619.31 52.57 619.31 65.72 627.52"/>
      <polygon class="cls-9" points="39.43 627.52 52.57 619.31 26.29 619.31 39.43 627.52"/>
      <polygon class="cls-9" points="13.14 627.52 26.29 619.31 0 619.31 13.14 627.52"/>
    </g>
    <polygon class="cls-7" points="262.32 619.31 232.77 523.69 292.4 392.86 319.24 395.43 345.05 424.2 385.82 300.85 498.9 426.93 577.75 619.31 564.61 627.52 551.47 619.31 538.32 627.52 525.18 619.31 512.04 627.52 498.9 619.31 485.75 626.99 472.61 618.77 459.47 627.52 446.32 619.31 433.18 627.52 420.04 619.31 406.89 627.52 393.75 619.31 380.61 626.99 367.46 618.77 354.32 627.52 341.18 619.31 328.03 627.52 314.89 619.31 301.75 627.52 288.6 619.31 275.46 627.52 262.32 619.31"/>
    <path class="cls-3" d="M422.13,295.23l-54.32-37.3c-2.27-1.73-5.56-.44-6.04,2.37l-20.66,120.01c-.67,3.92-6.17,4.28-7.35.48l-46.4-148.49c-2.27-7.28-12.59-7.24-14.79.07-4.18,13.83-9.81,31.45-15.89,47.43-9.04,23.79-19.05,43.93-26.62,42.46-17.97-3.49-28.13-47.23-33.03-34.46-4.91,12.78-11.88,117.29-23.49,118.46-5.2.52-9.56-.85-12.44,2.43l-31.36.02c-2.72-16.84-9.41-11.44-15.63-.19l-21.21.29c1.25-4.1,1.51-8.59,3.52-13.26.04-.08,10.41-26.25,10.45-26.33l42.12-89.42L279.77,2.1c1.42-2.83,5.46-2.78,6.81.07l140.58,288.67c1.71,3.59-1.87,6.8-5.03,4.39Z"/>
    <ellipse class="cls-3" cx="222.13" cy="356.06" rx="10.65" ry="16.65"/>
    <ellipse class="cls-3" cx="244" cy="337.09" rx="5.81" ry="8.13"/>
    <path class="cls-10" d="M129.74,408.71s-3.17-9.68,4.48-28.16c7.65-18.48,14.81,12,23.03,11.81,8.23-.19,8.18-11.32,13.53-11.23s12.12,3.29,11.05,12.29c-1.06,9-1.94,17.71-7.65,17.71s-9.34-6.11-13.09-2.44"/>
    <path class="cls-10" d="M92.9,408.81s1.68-17.29,5.87-19.2c4.19-1.91.06,5.19,3.42,7.25,3.35,2.06,2.71-18.06,8.77-18.06s.13,23.48,2.45,23.74,5.84-2.47,4.17.25c-1.67,2.72-4.49,6.69-4.49,8.76s-20.2-2.74-20.2-2.74Z"/>
    <g id="Waterfall-2" data-name="Waterfall">
      <rect class="cls-10" x="129.76" y="408.69" width="31.34" height="214.54"/>
      <rect class="cls-11" x="134.39" y="408.69" width="22.08" height="215.34"/>
      <rect class="cls-8" x="138.1" y="408.69" width="14.66" height="214.73"/>
      <g>
        <circle class="cls-1" cx="130.93" cy="622.53" r="8.77"/>
        <circle class="cls-1" cx="139.71" cy="624.03" r="6.65"/>
        <circle class="cls-1" cx="161.46" cy="620.77" r="9.65"/>
        <circle class="cls-1" cx="151.08" cy="622.53" r="5.65"/>
        <circle class="cls-1" cx="157.46" cy="628.87" r="5.65"/>
        <circle class="cls-1" cx="147.68" cy="628.94" r="4.92"/>
        <circle class="cls-1" cx="139.31" cy="615.08" r="4.92"/>
        <circle class="cls-1" cx="134.39" cy="628.18" r="5.63"/>
        <circle class="cls-1" cx="120.41" cy="611.12" r="2.94"/>
        <circle class="cls-1" cx="171.11" cy="613.17" r="3.71"/>
        <circle class="cls-1" cx="126.55" cy="611.12" r="1.53"/>
      </g>
      <g>
        <line class="cls-6" x1="156.47" y1="426.36" x2="156.47" y2="466.46"/>
        <line class="cls-6" x1="134.39" y1="436.81" x2="134.39" y2="487.15"/>
        <line class="cls-6" x1="156.47" y1="408.69" x2="156.47" y2="420.56"/>
        <line class="cls-6" x1="142.03" y1="491.49" x2="142.03" y2="503.36"/>
        <line class="cls-6" x1="149.7" y1="465.88" x2="149.7" y2="484.14"/>
        <line class="cls-6" x1="138.1" y1="516.3" x2="138.1" y2="548.66"/>
        <line class="cls-6" x1="138.1" y1="556.67" x2="138.1" y2="579.64"/>
        <line class="cls-6" x1="156.47" y1="540.84" x2="156.47" y2="561.89"/>
        <line class="cls-6" x1="140.89" y1="408.5" x2="140.89" y2="444.17"/>
        <line class="cls-6" x1="147.29" y1="554.5" x2="147.29" y2="564.63"/>
      </g>
      <g id="Calque_39" data-name="Calque 39">
        <rect class="cls-10" x="92.9" y="408.81" width="20.2" height="214.42"/>
        <rect class="cls-2" x="95.88" y="408.81" width="14.23" height="215.77"/>
        <rect class="cls-4" x="98.27" y="408.81" width="9.45" height="214.42"/>
        <g>
          <circle class="cls-1" cx="113.27" cy="623.62" r="5.65"/>
          <circle class="cls-1" cx="107.61" cy="624.58" r="4.29"/>
          <circle class="cls-1" cx="93.59" cy="622.48" r="6.22"/>
          <circle class="cls-1" cx="100.28" cy="623.62" r="3.64"/>
          <circle class="cls-1" cx="96.17" cy="627.71" r="3.64"/>
          <circle class="cls-1" cx="102.48" cy="627.75" r="3.17"/>
          <circle class="cls-1" cx="107.87" cy="618.81" r="3.17"/>
          <circle class="cls-1" cx="111.04" cy="627.26" r="3.63"/>
          <circle class="cls-1" cx="120.05" cy="616.26" r="1.89"/>
          <circle class="cls-1" cx="87.37" cy="617.59" r="2.39"/>
          <circle class="cls-1" cx="116.09" cy="616.26" r=".98"/>
        </g>
        <g>
          <line class="cls-5" x1="110.11" y1="420.2" x2="110.11" y2="446.04"/>
          <line class="cls-5" x1="95.88" y1="426.93" x2="95.88" y2="459.37"/>
          <line class="cls-5" x1="110.11" y1="408.81" x2="110.11" y2="416.46"/>
          <line class="cls-5" x1="100.8" y1="462.17" x2="100.8" y2="469.82"/>
          <line class="cls-5" x1="105.75" y1="445.67" x2="105.75" y2="457.43"/>
          <line class="cls-5" x1="98.27" y1="478.16" x2="98.27" y2="499.01"/>
          <line class="cls-5" x1="98.27" y1="504.18" x2="98.27" y2="518.98"/>
          <line class="cls-5" x1="110.11" y1="493.97" x2="110.11" y2="507.54"/>
          <line class="cls-5" x1="100.07" y1="408.69" x2="100.07" y2="431.68"/>
          <line class="cls-5" x1="104.19" y1="502.78" x2="104.19" y2="509.31"/>
        </g>
        <line class="cls-5" x1="107.72" y1="535.07" x2="107.72" y2="549.01"/>
        <line class="cls-5" x1="98.27" y1="556.67" x2="98.27" y2="582.14"/>
        <line class="cls-5" x1="98.27" y1="586.2" x2="98.27" y2="594.04"/>
        <line class="cls-5" x1="104.56" y1="562.69" x2="104.56" y2="572.95"/>
        <line class="cls-5" x1="110.11" y1="554.5" x2="110.11" y2="559.57"/>
        <line class="cls-5" x1="110.11" y1="606.2" x2="110.11" y2="618.81"/>
        <line class="cls-5" x1="101.69" y1="611.12" x2="101.69" y2="621.98"/>
        <line class="cls-5" x1="95.88" y1="605.53" x2="95.88" y2="608.18"/>
        <line class="cls-5" x1="95.88" y1="610.56" x2="95.88" y2="619.31"/>
      </g>
      <line class="cls-6" x1="152.76" y1="594.91" x2="152.76" y2="619.32"/>
      <line class="cls-6" x1="134.39" y1="607.12" x2="134.39" y2="618.16"/>
      <line class="cls-6" x1="156.47" y1="576.2" x2="156.47" y2="579.04"/>
    </g>
  </g>
</svg>