<?xml version="1.0" encoding="UTF-8"?>
<svg id="New_DA" data-name="New DA" xmlns="http://www.w3.org/2000/svg" xmlns:xlink="http://www.w3.org/1999/xlink" viewBox="0 0 422.77 382.52">
  <defs>
    <style>
      .cls-1 {
        stroke: url(#Dégradé_sans_nom_364-2);
      }

      .cls-1, .cls-2, .cls-3, .cls-4, .cls-5 {
        fill: none;
        stroke-linecap: round;
        stroke-linejoin: round;
      }

      .cls-1, .cls-2, .cls-3, .cls-5 {
        stroke-width: 5px;
      }

      .cls-2 {
        stroke: url(#Dégradé_sans_nom_364-4);
      }

      .cls-3 {
        stroke: url(#Dégradé_sans_nom_364-3);
      }

      .cls-6 {
        fill: #d2d3e0;
      }

      .cls-7 {
        fill: url(#Dégradé_sans_nom_319);
      }

      .cls-4 {
        stroke: #b0b2c4;
        stroke-width: 3px;
      }

      .cls-5 {
        stroke: url(#Dégradé_sans_nom_364);
      }

      .cls-8 {
        fill: #b0b2c4;
      }
    </style>
    <linearGradient id="Dégradé_sans_nom_319" data-name="Dégradé sans nom 319" x1="218.2" y1="151.6" x2="218.2" y2="382.52" gradientUnits="userSpaceOnUse">
      <stop offset=".55" stop-color="#1b8ee6"/>
      <stop offset="1" stop-color="#1b51e6"/>
    </linearGradient>
    <linearGradient id="Dégradé_sans_nom_364" data-name="Dégradé sans nom 364" x1="96.13" y1="-1635.91" x2="96.13" y2="-1619" gradientTransform="translate(0 1445.68) scale(1 .83)" gradientUnits="userSpaceOnUse">
      <stop offset="0" stop-color="#1b51e6"/>
      <stop offset="1" stop-color="#103496"/>
    </linearGradient>
    <linearGradient id="Dégradé_sans_nom_364-2" data-name="Dégradé sans nom 364" x1="104.97" y1="2707.61" x2="104.97" y2="2728.07" gradientTransform="translate(0 -3859.07) scale(1 1.46)" xlink:href="#Dégradé_sans_nom_364"/>
    <linearGradient id="Dégradé_sans_nom_364-3" data-name="Dégradé sans nom 364" x1="114.5" y1="83.23" x2="114.5" y2="107.77" gradientTransform="matrix(1,0,0,1,0,0)" xlink:href="#Dégradé_sans_nom_364"/>
    <linearGradient id="Dégradé_sans_nom_364-4" data-name="Dégradé sans nom 364" x1="121.62" y1="90.77" x2="121.62" y2="103.13" gradientTransform="matrix(1,0,0,1,0,0)" xlink:href="#Dégradé_sans_nom_364"/>
  </defs>
  <g id="Fonte">
    <g id="Calotte">
      <path class="cls-7" d="M13.83,216.1l14.98,137.54c1.79,16.43,15.67,28.88,32.2,28.88h279.92c10.17,0,19.73-4.87,25.71-13.09l44.43-61.07c3.69-5.07,5.83-11.11,6.16-17.38l5.5-105.93c.95-18.25-13.65-33.54-31.93-33.45l-268.57,1.45c-3.64.02-7.25.65-10.67,1.87l-76.38,27.15c-14.14,5.03-22.98,19.11-21.35,34.03Z"/>
      <path class="cls-6" d="M137.39,346.35l101-134.45c2-2.66,5.13-4.23,8.46-4.23h77.71c9.05,0,13.93,10.63,8.02,17.49l-115.72,134.45c-2.01,2.34-4.94,3.68-8.02,3.68h-62.99c-8.72,0-13.7-9.96-8.46-16.94Z"/>
      <path class="cls-6" d="M85.44,350.51l97.06-139.35c1.52-2.18,4.01-3.48,6.67-3.48h8.78c6.73,0,10.54,7.7,6.48,13.05l-105.84,139.35c-1.54,2.02-3.93,3.21-6.48,3.21h0c-6.57,0-10.43-7.39-6.67-12.78Z"/>
      <path class="cls-6" d="M383.26,313.16l-22.24-96.9c-.53-2.29.42-4.67,2.38-5.97l10.95-7.3c3.47-2.31,8.16-.21,8.74,3.91l14.26,100.62c.22,1.58-.23,3.18-1.25,4.41l-2.96,3.58c-2.99,3.61-8.82,2.22-9.87-2.35Z"/>
      <path class="cls-6" d="M378.72,326.76l-17.2-51.16c-.9-2.68-4.86-2.03-4.86.79v36.91c0,.15.01.31.04.46l5.61,29.8c.4,2.14,3.15,2.77,4.45,1.03l11.59-15.55c.49-.66.62-1.51.36-2.28Z"/>
    </g>
    <g id="Bear">
      <path class="cls-6" d="M69.78,83.34c8.9-8.72,27.95-65.97,75.25-75.1,47.31-9.13,73.17-12.9,110.27.52,48.64,17.6,61.29,26.67,86.25,32.52,39.01,9.14,65.99,41.49,69.73,56.02,3.73,14.52,6.64,58.92-34.86,71.79-54.82,17-76.54-2.39-111.38-7.57-37.12-5.52-55.65,22.98-95.48,24.22-39.84,1.24-109.73-92.64-99.79-102.39Z"/>
      <path class="cls-6" d="M128.67,84.49c16.73,28.98,2.9,65.76-34.51,86.2-25.3,13.83-49.86,25.73-68.33,15.25-8.29-4.7-13.57-11.87-14.63-13.69-9.52-16.39-9.69-25.82-1.04-51.53,8.64-25.67,16.69-46.08,25.11-52.8,24.2-19.33,75.39-14.62,93.4,16.57Z"/>
      <ellipse class="cls-6" cx="101.83" cy="67.11" rx="19.3" ry="21.73" transform="translate(9.53 146.83) rotate(-74.2)"/>
      <ellipse class="cls-6" cx="40.56" cy="63.55" rx="18.26" ry="15.22" transform="translate(-24.99 26.31) rotate(-27.85)"/>
      <ellipse class="cls-8" cx="103.4" cy="70.33" rx="9.89" ry="15.13" transform="translate(7.58 150.69) rotate(-74.2)"/>
      <circle cx="71.35" cy="130.31" r="10.97"/>
      <path d="M43.16,156.04c0,7.1-10.11,18.28-22.42,18.28S0,161.92,0,154.82s6.66-6.07,18.97-6.07,24.19.19,24.19,7.29Z"/>
      <path class="cls-6" d="M179.32,92.57c-.83,2.9-17.84,39.84-29.46,41.91-11.62,2.07-39.42-.41-34.86,28.63,4.56,29.05,24.48,22.82,41.5,22.82s49.38,4.98,63.9-12.03c14.52-17.01,51.04-44.4,53.95-46.48,2.9-2.07-95.03-34.86-95.03-34.86Z"/>
      <path class="cls-6" d="M327.04,67.11s-72.2,2.79-66.39,39.72c5.81,36.93,39.01,53.12,42.33,56.85,3.32,3.73-25.31-35.62-40.25-20.51-14.94,15.11-21.58,40.01.83,41.67,22.41,1.66,66.16,6.52,71.79-7.47,6.64-16.49-8.3-110.27-8.3-110.27Z"/>
      <circle class="cls-6" cx="399.9" cy="100.3" r="22.87"/>
      <path class="cls-4" d="M122.74,73.03c5.26-20.81-19.33-25.41-19.33-25.41,0,0-5.27-.61-9.46,1.2"/>
      <path class="cls-4" d="M114.5,154.04s.56-14.9,17.96-17.23c17.4-2.33,21.91-.49,28.74-11.76"/>
      <path class="cls-4" d="M228.82,165.09s24.15-15.24,26.48-22.93"/>
      <path class="cls-4" d="M252.19,158.29s4.92-18,23.12-15.42c18.19,2.58,30.87,6.39,32.42,19.16"/>
      <line class="cls-5" x1="96.13" y1="91.79" x2="96.13" y2="101.66"/>
      <line class="cls-1" x1="104.97" y1="88.53" x2="104.97" y2="111.05"/>
      <line class="cls-3" x1="114.5" y1="85.73" x2="114.5" y2="105.27"/>
      <line class="cls-2" x1="121.62" y1="93.27" x2="121.62" y2="100.63"/>
      <path class="cls-4" d="M275.83,79.8s-37.63,20.89,5.09,63.02"/>
    </g>
  </g>
</svg>