<svg width="217" height="51" viewBox="0 0 217 51" fill="none" xmlns="http://www.w3.org/2000/svg">
<path d="M9.21381 12.4985H15.5883L24.5516 23.0485H17.9544L9.21381 12.4985ZM12.8047 21.8793C10.2623 21.8793 8.03541 21.4247 6.12399 20.5154C4.23112 19.606 2.75579 18.3348 1.69801 16.7018C0.640235 15.0502 0.111345 13.1295 0.111345 10.9397C0.111345 8.74988 0.640235 6.83845 1.69801 5.20539C2.75579 3.55377 4.23112 2.2733 6.12399 1.36398C8.03541 0.454659 10.2623 0 12.8047 0C15.3471 0 17.5647 0.454659 19.4576 1.36398C21.369 2.2733 22.8536 3.55377 23.9114 5.20539C24.9692 6.83845 25.498 8.74988 25.498 10.9397C25.498 13.1295 24.9692 15.0502 23.9114 16.7018C22.8536 18.3348 21.369 19.606 19.4576 20.5154C17.5647 21.4247 15.3471 21.8793 12.8047 21.8793ZM12.8047 15.477C13.9367 15.477 14.911 15.3007 15.7275 14.9481C16.544 14.5769 17.1657 14.0573 17.5925 13.3893C18.0379 12.7026 18.2606 11.8861 18.2606 10.9397C18.2606 9.99323 18.0379 9.18598 17.5925 8.51791C17.1657 7.83128 16.544 7.31167 15.7275 6.95907C14.911 6.58792 13.9367 6.40235 12.8047 6.40235C11.6727 6.40235 10.6984 6.58792 9.88188 6.95907C9.06535 7.31167 8.4344 7.83128 7.98902 8.51791C7.56219 9.18598 7.34878 9.99323 7.34878 10.9397C7.34878 11.8861 7.56219 12.7026 7.98902 13.3893C8.4344 14.0573 9.06535 14.5769 9.88188 14.9481C10.6984 15.3007 11.6727 15.477 12.8047 15.477Z" fill="#DCDCDC"/>
<path d="M34.5916 21.8515C33.0884 21.8515 31.7987 21.5453 30.7224 20.9329C29.646 20.3019 28.8202 19.4297 28.2449 18.3163C27.6882 17.1843 27.4098 15.876 27.4098 14.3914V5.3724H34.4803V13.3893C34.4803 14.2615 34.7029 14.9388 35.1483 15.4213C35.6123 15.9038 36.2618 16.1451 37.0969 16.1451C37.7464 16.1451 38.2753 16.0337 38.6835 15.811C39.1104 15.5698 39.4258 15.2172 39.63 14.7532C39.8527 14.2707 39.964 13.6862 39.964 12.9995L42.0517 14.0573C41.8105 15.7832 41.3187 17.2307 40.5764 18.3998C39.8527 19.5504 38.9712 20.4133 37.932 20.9886C36.9113 21.5638 35.7978 21.8515 34.5916 21.8515ZM41.0775 21.3783L39.964 14.5584V5.3724H47.0344V15.644L48.1479 21.3783H41.0775Z" fill="#DCDCDC"/>
<path d="M49.9472 11.4964L53.0649 4.9827L53.5103 7.59931C52.8051 7.59931 52.1649 7.43229 51.5896 7.09826C51.0143 6.76422 50.5596 6.31884 50.2256 5.76211C49.8916 5.18683 49.7245 4.55587 49.7245 3.86924C49.7245 3.18262 49.8916 2.56094 50.2256 2.00421C50.5596 1.44749 51.0143 1.00211 51.5896 0.668071C52.1649 0.334035 52.8051 0.167017 53.5103 0.167017C54.2155 0.167017 54.8464 0.334035 55.4031 0.668071C55.9784 1.00211 56.4331 1.45677 56.7671 2.03205C57.1012 2.58877 57.2682 3.21973 57.2682 3.92492C57.2682 4.55587 57.1012 5.2425 56.7671 5.9848C56.4516 6.7271 55.9042 7.6457 55.1248 8.7406L53.1762 11.4964H49.9472Z" fill="#DCDCDC"/>
<path d="M67.6309 21.8793C65.6452 21.8793 63.8637 21.5267 62.2863 20.8215C60.7275 20.0978 59.4934 19.0957 58.5841 17.8152C57.6748 16.5162 57.2201 15.013 57.2201 13.3057C57.2201 11.617 57.6562 10.1417 58.5284 8.87978C59.4192 7.61787 60.6254 6.63432 62.1471 5.92913C63.6689 5.22394 65.3761 4.87135 67.269 4.87135C69.2547 4.87135 70.9434 5.27962 72.3352 6.09615C73.727 6.91268 74.7941 8.07253 75.5364 9.57568C76.2787 11.0603 76.6498 12.8233 76.6498 14.8646H63.0101V11.6077H72.5301L70.6372 12.6655C70.5444 11.9418 70.3588 11.3387 70.0805 10.8562C69.8021 10.3737 69.431 10.0118 68.967 9.77054C68.5217 9.51073 67.9835 9.38083 67.3525 9.38083C66.6473 9.38083 66.0442 9.53857 65.5432 9.85405C65.0607 10.1695 64.6895 10.6056 64.4297 11.1624C64.1885 11.7005 64.0678 12.3129 64.0678 12.9995C64.0678 13.8903 64.2627 14.6419 64.6524 15.2543C65.0607 15.8481 65.6731 16.3028 66.4896 16.6183C67.3061 16.9337 68.3361 17.0915 69.5794 17.0915C70.7857 17.0915 71.9548 16.943 73.0868 16.6461C74.2374 16.3306 75.2951 15.8852 76.2601 15.31V19.3184C75.0725 20.1535 73.7178 20.7937 72.196 21.2391C70.6929 21.6659 69.1712 21.8793 67.6309 21.8793Z" fill="#DCDCDC"/>
<path d="M98.5848 15.9224C98.5848 17.2585 98.1673 18.372 97.3322 19.2627C96.4971 20.1349 95.328 20.7937 93.8248 21.2391C92.3402 21.6659 90.5958 21.8793 88.5916 21.8793C86.5317 21.8793 84.7131 21.6381 83.1357 21.1556C81.5769 20.6545 80.3428 19.9586 79.4335 19.0679C78.5427 18.1771 78.0695 17.1379 78.0138 15.9502H85.1956C85.3255 16.3028 85.5482 16.5997 85.8637 16.841C86.1791 17.0636 86.5874 17.2399 87.0885 17.3698C87.6081 17.4812 88.239 17.5369 88.9813 17.5369C89.8721 17.5369 90.5494 17.4534 91.0134 17.2863C91.4773 17.1008 91.7093 16.8502 91.7093 16.5348C91.7093 16.2193 91.5144 15.9966 91.1247 15.8667C90.735 15.7368 90.1041 15.644 89.2318 15.5883L86.6152 15.4213C84.5925 15.2914 82.978 15.0316 81.7717 14.6419C80.584 14.2336 79.7304 13.6862 79.2108 12.9995C78.6912 12.3129 78.4314 11.4871 78.4314 10.5221C78.4314 9.24165 78.8304 8.18387 79.6283 7.34878C80.4449 6.51369 81.5769 5.89202 83.0244 5.48375C84.4718 5.07548 86.1606 4.87135 88.0906 4.87135C89.9834 4.87135 91.6629 5.1126 93.1289 5.59509C94.595 6.05903 95.7734 6.71782 96.6641 7.57147C97.5549 8.42512 98.0745 9.41795 98.223 10.55H91.0412C90.9484 10.2159 90.7628 9.92828 90.4845 9.68703C90.2061 9.44578 89.8443 9.26021 89.3989 9.1303C88.9535 9.0004 88.4153 8.93545 87.7844 8.93545C86.9307 8.93545 86.309 9.03752 85.9193 9.24165C85.5296 9.42723 85.3348 9.67775 85.3348 9.99323C85.3348 10.2901 85.4554 10.5036 85.6966 10.6335C85.9379 10.7448 86.4111 10.819 87.1163 10.8562L90.6237 11.0788C92.6279 11.1902 94.2053 11.45 95.3558 11.8583C96.525 12.248 97.3508 12.7769 97.8333 13.4449C98.3343 14.113 98.5848 14.9388 98.5848 15.9224Z" fill="#DCDCDC"/>
<path d="M99.1796 10.5221V7.48796L102.325 5.90129L105.415 1.00211H109.396V5.3724H115.659V10.5221H109.396V13.8068C109.396 14.8275 109.59 15.5512 109.98 15.978C110.37 16.3863 111.168 16.5904 112.374 16.5904C113.116 16.5904 113.775 16.544 114.35 16.4513C114.944 16.3399 115.473 16.21 115.937 16.0615V21.1834C115.306 21.369 114.527 21.5267 113.599 21.6566C112.69 21.8051 111.734 21.8793 110.732 21.8793C108.839 21.8793 107.271 21.601 106.027 21.0442C104.784 20.469 103.856 19.6431 103.244 18.5668C102.631 17.4905 102.325 16.21 102.325 14.7254V10.5221H99.1796Z" fill="#DCDCDC"/>
<path d="M118.102 8.93545H125.952V14.447H118.102V8.93545Z" fill="#DCDCDC"/>
<path d="M148.688 14.3357C148.558 15.8389 148.029 17.1564 147.101 18.2884C146.173 19.4205 144.958 20.3019 143.455 20.9329C141.97 21.5639 140.291 21.8793 138.416 21.8793C136.375 21.8793 134.575 21.5267 133.016 20.8215C131.457 20.0978 130.242 19.0957 129.37 17.8152C128.497 16.5348 128.061 15.0594 128.061 13.3893C128.061 11.7005 128.497 10.2252 129.37 8.96329C130.242 7.68282 131.457 6.68071 133.016 5.95697C134.575 5.23322 136.375 4.87135 138.416 4.87135C140.291 4.87135 141.97 5.18683 143.455 5.81779C144.958 6.44874 146.173 7.33022 147.101 8.46223C148.029 9.57569 148.558 10.8933 148.688 12.415H141.701C141.534 11.617 141.154 11.0232 140.56 10.6335C139.985 10.2252 139.27 10.0211 138.416 10.0211C137.767 10.0211 137.192 10.151 136.691 10.4108C136.208 10.652 135.837 11.0232 135.577 11.5242C135.317 12.0253 135.187 12.647 135.187 13.3893C135.187 14.1316 135.317 14.7532 135.577 15.2543C135.837 15.7368 136.208 16.1079 136.691 16.3677C137.192 16.609 137.767 16.7296 138.416 16.7296C139.27 16.7296 139.985 16.5162 140.56 16.0894C141.154 15.644 141.534 15.0594 141.701 14.3357H148.688Z" fill="#DCDCDC"/>
<path d="M160.382 21.8793C158.397 21.8793 156.615 21.5267 155.038 20.8215C153.479 20.0978 152.245 19.0957 151.335 17.8152C150.426 16.5162 149.972 15.013 149.972 13.3057C149.972 11.617 150.408 10.1417 151.28 8.87978C152.171 7.61787 153.377 6.63432 154.899 5.92913C156.42 5.22394 158.128 4.87135 160.02 4.87135C162.006 4.87135 163.695 5.27962 165.087 6.09615C166.478 6.91268 167.546 8.07253 168.288 9.57568C169.03 11.0603 169.401 12.8233 169.401 14.8646H155.761V11.6077H165.281L163.389 12.6655C163.296 11.9418 163.11 11.3387 162.832 10.8562C162.554 10.3737 162.182 10.0118 161.718 9.77054C161.273 9.51073 160.735 9.38083 160.104 9.38083C159.399 9.38083 158.796 9.53857 158.295 9.85405C157.812 10.1695 157.441 10.6056 157.181 11.1624C156.94 11.7005 156.819 12.3129 156.819 12.9995C156.819 13.8903 157.014 14.6419 157.404 15.2543C157.812 15.8481 158.424 16.3028 159.241 16.6183C160.058 16.9337 161.087 17.0915 162.331 17.0915C163.537 17.0915 164.706 16.943 165.838 16.6461C166.989 16.3306 168.047 15.8852 169.012 15.31V19.3184C167.824 20.1535 166.469 20.7937 164.947 21.2391C163.444 21.6659 161.923 21.8793 160.382 21.8793Z" fill="#DCDCDC"/>
<path d="M21.1278 29.6297V50.2286H14.0573V41.1818L14.3357 39.6508V34.3619L14.0573 33.5825V29.6297H21.1278ZM16.1451 37.6466C15.9595 39.3539 15.4955 40.8478 14.7532 42.1282C14.0295 43.3902 13.0738 44.3737 11.8861 45.0789C10.717 45.7841 9.37155 46.1367 7.84983 46.1367C6.291 46.1367 4.91775 45.7841 3.73006 45.0789C2.56094 44.3737 1.64234 43.3809 0.97427 42.1004C0.324757 40.8199 0 39.3353 0 37.6466C0 35.9393 0.324757 34.4454 0.97427 33.165C1.64234 31.8845 2.56094 30.8917 3.73006 30.1865C4.91775 29.4813 6.291 29.1287 7.84983 29.1287C9.37155 29.1287 10.717 29.4813 11.8861 30.1865C13.0738 30.8731 14.0388 31.8567 14.7811 33.1371C15.5234 34.399 15.978 35.9022 16.1451 37.6466ZM7.12609 37.6466C7.12609 38.259 7.24672 38.8064 7.48796 39.2889C7.74777 39.7529 8.10036 40.124 8.54574 40.4024C9.00968 40.6808 9.53857 40.8199 10.1324 40.8199C10.7448 40.8199 11.3387 40.6808 11.9139 40.4024C12.4892 40.124 12.9903 39.7529 13.4171 39.2889C13.8625 38.8064 14.1687 38.259 14.3357 37.6466C14.1687 37.0342 13.8625 36.4868 13.4171 36.0043C12.9903 35.5218 12.4892 35.1413 11.9139 34.863C11.3387 34.5846 10.7448 34.4454 10.1324 34.4454C9.53857 34.4454 9.00968 34.5846 8.54574 34.863C8.10036 35.1413 7.74777 35.5218 7.48796 36.0043C7.24672 36.4868 7.12609 37.0342 7.12609 37.6466Z" fill="#DCDCDC"/>
<path d="M30.7859 46.1088C29.2827 46.1088 27.9929 45.8026 26.9166 45.1902C25.8403 44.5593 25.0145 43.6871 24.4392 42.5736C23.8825 41.4416 23.6041 40.1333 23.6041 38.6487V29.6297H30.6745V37.6466C30.6745 38.5188 30.8972 39.1962 31.3426 39.6786C31.8065 40.1611 32.456 40.4024 33.2911 40.4024C33.9406 40.4024 34.4695 40.291 34.8778 40.0684C35.3046 39.8271 35.6201 39.4745 35.8242 39.0106C36.0469 38.5281 36.1583 37.9435 36.1583 37.2569L38.246 38.3147C38.0047 40.0405 37.513 41.488 36.7707 42.6571C36.0469 43.8077 35.1654 44.6706 34.1262 45.2459C33.1055 45.8212 31.9921 46.1088 30.7859 46.1088ZM37.2717 45.6356L36.1583 38.8157V29.6297H43.2287V39.9013L44.3421 45.6356H37.2717Z" fill="#DCDCDC"/>
<path d="M46.1415 35.7537L49.2592 29.24L49.7045 31.8567C48.9993 31.8567 48.3591 31.6896 47.7838 31.3556C47.2085 31.0216 46.7539 30.5762 46.4198 30.0195C46.0858 29.4442 45.9188 28.8132 45.9188 28.1266C45.9188 27.44 46.0858 26.8183 46.4198 26.2616C46.7539 25.7048 47.2085 25.2594 47.7838 24.9254C48.3591 24.5914 48.9993 24.4244 49.7045 24.4244C50.4097 24.4244 51.0407 24.5914 51.5974 24.9254C52.1727 25.2594 52.6273 25.7141 52.9614 26.2894C53.2954 26.8461 53.4624 27.4771 53.4624 28.1823C53.4624 28.8132 53.2954 29.4998 52.9614 30.2421C52.6459 30.9844 52.0985 31.903 51.319 32.9979L49.3705 35.7537H46.1415Z" fill="#DCDCDC"/>
<path d="M63.9922 46.1367C61.8766 46.1367 60.0209 45.7841 58.4249 45.0789C56.8475 44.3737 55.6134 43.3809 54.7227 42.1004C53.8505 40.8199 53.4144 39.3353 53.4144 37.6466C53.4144 35.9393 53.8505 34.4454 54.7227 33.165C55.6134 31.8845 56.8475 30.8917 58.4249 30.1865C60.0209 29.4813 61.8766 29.1287 63.9922 29.1287C66.1077 29.1287 67.9542 29.4813 69.5316 30.1865C71.1275 30.8917 72.3616 31.8845 73.2338 33.165C74.1246 34.4454 74.57 35.9393 74.57 37.6466C74.57 39.3353 74.1246 40.8199 73.2338 42.1004C72.3616 43.3809 71.1275 44.3737 69.5316 45.0789C67.9542 45.7841 66.1077 46.1367 63.9922 46.1367ZM63.9922 40.987C64.7345 40.987 65.3561 40.8571 65.8572 40.5972C66.3768 40.3374 66.7665 39.957 67.0263 39.456C67.3047 38.9549 67.4439 38.3518 67.4439 37.6466C67.4439 36.9229 67.3047 36.3105 67.0263 35.8094C66.7665 35.3084 66.3768 34.9279 65.8572 34.6681C65.3561 34.4083 64.7345 34.2784 63.9922 34.2784C63.2684 34.2784 62.6467 34.4083 62.1271 34.6681C61.6075 34.9279 61.2085 35.3084 60.9302 35.8094C60.6704 36.3105 60.5405 36.9136 60.5405 37.6188C60.5405 38.3425 60.6704 38.9549 60.9302 39.456C61.2085 39.957 61.6075 40.3374 62.1271 40.5972C62.6467 40.8571 63.2684 40.987 63.9922 40.987Z" fill="#DCDCDC"/>
<path d="M75.6754 29.6297H82.7458L83.8592 36.4496V45.6356H76.7888V35.364L75.6754 29.6297ZM89.3987 29.1287C90.9575 29.1287 92.2843 29.4442 93.3792 30.0751C94.4741 30.6875 95.3092 31.5597 95.8845 32.6917C96.4784 33.8052 96.7753 35.1135 96.7753 36.6167V45.6356H89.7049V37.6188C89.7049 36.728 89.4543 36.0414 88.9533 35.5589C88.4708 35.0764 87.7841 34.8351 86.8934 34.8351C86.2624 34.8351 85.715 34.965 85.251 35.2248C84.8057 35.4661 84.4623 35.828 84.2211 36.3105C83.9799 36.7744 83.8592 37.3404 83.8592 38.0085L81.7715 36.9507C82.0313 35.2063 82.5324 33.7588 83.2747 32.6082C84.017 31.4391 84.917 30.5669 85.9748 29.9916C87.0326 29.4163 88.1739 29.1287 89.3987 29.1287Z" fill="#DCDCDC"/>
<path d="M118.283 28.8782C117.114 28.8782 116.343 29.0545 115.972 29.4071C115.601 29.7596 115.416 30.2978 115.416 31.0216V45.6356H108.345V31.2999C108.345 29.6112 108.698 28.2101 109.403 27.0966C110.108 25.9646 111.138 25.1203 112.493 24.5635C113.847 23.9883 115.49 23.7006 117.42 23.7006C118.236 23.7006 118.979 23.7563 119.647 23.8676C120.315 23.9604 121.048 24.1089 121.846 24.313V29.3792C121.27 29.2308 120.686 29.1101 120.092 29.0173C119.517 28.9246 118.914 28.8782 118.283 28.8782ZM105.2 36.2548V31.1051H121.4V36.2548H105.2Z" fill="#DCDCDC"/>
<path d="M137.052 45.6356L136.244 39.9849L137.052 37.6466L136.244 35.3362L137.052 29.6297H144.4L143.287 37.6188L144.4 45.6356H137.052ZM138.527 37.6466C138.341 39.3539 137.877 40.8478 137.135 42.1282C136.411 43.3902 135.456 44.3737 134.268 45.0789C133.099 45.7841 131.753 46.1367 130.232 46.1367C128.673 46.1367 127.3 45.7841 126.112 45.0789C124.943 44.3737 124.024 43.3809 123.356 42.1004C122.707 40.8199 122.382 39.3353 122.382 37.6466C122.382 35.9393 122.707 34.4454 123.356 33.165C124.024 31.8845 124.943 30.8917 126.112 30.1865C127.3 29.4813 128.673 29.1287 130.232 29.1287C131.753 29.1287 133.099 29.4813 134.268 30.1865C135.456 30.8731 136.421 31.8567 137.163 33.1371C137.905 34.399 138.36 35.9022 138.527 37.6466ZM129.508 37.6466C129.508 38.259 129.629 38.8064 129.87 39.2889C130.13 39.7529 130.482 40.124 130.928 40.4024C131.392 40.6808 131.92 40.8199 132.514 40.8199C133.127 40.8199 133.72 40.6808 134.296 40.4024C134.871 40.124 135.372 39.7529 135.799 39.2889C136.244 38.8064 136.551 38.259 136.718 37.6466C136.551 37.0342 136.244 36.4868 135.799 36.0043C135.372 35.5218 134.871 35.1413 134.296 34.863C133.72 34.5846 133.127 34.4454 132.514 34.4454C131.92 34.4454 131.392 34.5846 130.928 34.863C130.482 35.1413 130.13 35.5218 129.87 36.0043C129.629 36.4868 129.508 37.0342 129.508 37.6466Z" fill="#DCDCDC"/>
<path d="M146.643 29.2957L150.178 30.0195L153.713 29.2957V45.6356H146.643V29.2957ZM150.178 28.4606C148.99 28.4606 148.035 28.173 147.311 27.5977C146.587 27.0224 146.225 26.2337 146.225 25.2316C146.225 24.2295 146.587 23.4408 147.311 22.8655C148.035 22.2902 148.99 22.0026 150.178 22.0026C151.384 22.0026 152.34 22.2902 153.045 22.8655C153.769 23.4408 154.131 24.2295 154.131 25.2316C154.131 26.2337 153.769 27.0224 153.045 27.5977C152.34 28.173 151.384 28.4606 150.178 28.4606Z" fill="#DCDCDC"/>
<path d="M155.206 34.7795V31.7453L158.351 30.1586L161.441 25.2594H165.422V29.6297H171.685V34.7795H165.422V38.0641C165.422 39.0848 165.616 39.8086 166.006 40.2354C166.396 40.6436 167.194 40.8478 168.4 40.8478C169.142 40.8478 169.801 40.8014 170.376 40.7086C170.97 40.5972 171.499 40.4673 171.963 40.3189V45.4408C171.332 45.6263 170.553 45.7841 169.625 45.914C168.715 46.0624 167.76 46.1367 166.758 46.1367C164.865 46.1367 163.297 45.8583 162.053 45.3016C160.81 44.7263 159.882 43.9005 159.27 42.8242C158.657 41.7478 158.351 40.4673 158.351 38.9827V34.7795H155.206Z" fill="#DCDCDC"/>
<path fill-rule="evenodd" clip-rule="evenodd" d="M187.112 25.0431C186.219 26.3258 185.773 27.7472 185.773 29.3072C185.773 29.5152 185.791 29.7579 185.825 30.0352C185.859 30.3126 185.928 30.6073 186.031 30.9193H197.51V30.6073C197.51 30.0179 197.664 29.5326 197.973 29.1512C198.316 28.7352 198.814 28.3885 199.466 28.1112L202.858 26.6702L200.959 6.09964C198.618 5.41611 195.89 5.07434 192.774 5.07434C187.215 5.07434 182.788 6.32238 179.493 8.81847C176.233 11.3146 174.466 14.7987 174.191 19.2708H186.648C186.854 17.9535 187.455 16.9308 188.45 16.2027C189.48 15.4747 190.904 15.1107 192.723 15.1107C194.473 15.1107 195.76 15.3534 196.583 15.8387C197.441 16.3241 197.87 17.0174 197.87 17.9188C197.87 18.3695 197.698 18.7682 197.355 19.1148C197.046 19.4615 196.532 19.7735 195.811 20.0509L191.796 21.7149C189.6 22.6163 188.038 23.7257 187.112 25.0431ZM186.597 43.8677C187.867 45.0464 189.548 45.6358 191.642 45.6358C193.735 45.6358 195.416 45.0464 196.686 43.8677C197.956 42.6544 198.591 41.077 198.591 39.1356C198.591 37.1942 197.956 35.6341 196.686 34.4554C195.416 33.242 193.735 32.6353 191.642 32.6353C189.548 32.6353 187.867 33.242 186.597 34.4554C185.327 35.6341 184.692 37.1942 184.692 39.1356C184.692 41.077 185.327 42.6544 186.597 43.8677Z" fill="#DCDCDC"/>
<path d="M202.528 6.26721H216.24L214.024 30.033H204.745L202.528 6.26721ZM209.384 45.6357C207.288 45.6357 205.604 45.0502 204.333 43.8791C203.061 42.6736 202.425 41.1064 202.425 39.1776C202.425 37.2488 203.061 35.6988 204.333 34.5278C205.604 33.3223 207.288 32.7195 209.384 32.7195C211.481 32.7195 213.165 33.3223 214.436 34.5278C215.708 35.6988 216.343 37.2488 216.343 39.1776C216.343 41.1064 215.708 42.6736 214.436 43.8791C213.165 45.0502 211.481 45.6357 209.384 45.6357Z" fill="#DCDCDC"/>
</svg>
