<svg width="979" height="230" viewBox="0 0 979 230" fill="none" xmlns="http://www.w3.org/2000/svg">
<path d="M41.5684 56.3658H70.327L110.765 103.944H81.0018L41.5684 56.3658ZM57.7688 98.6713C46.2987 98.6713 36.252 96.6212 27.6286 92.5204C19.0889 88.4192 12.4329 82.6863 7.66071 75.3218C2.88854 67.8734 0.502441 59.2115 0.502441 49.3359C0.502441 39.4602 2.88854 30.8401 7.66071 23.4753C12.4329 16.0268 19.0889 10.2521 27.6286 6.15128C36.252 2.05042 46.2987 0 57.7688 0C69.2389 0 79.2436 2.05042 87.7835 6.15128C96.4068 10.2521 103.105 16.0268 107.877 23.4753C112.649 30.8401 115.035 39.4602 115.035 49.3359C115.035 59.2115 112.649 67.8734 107.877 75.3218C103.105 82.6863 96.4068 88.4192 87.7835 92.5204C79.2436 96.6212 69.2389 98.6713 57.7688 98.6713ZM57.7688 69.7982C62.8758 69.7982 67.2714 69.0032 70.955 67.413C74.6387 65.739 77.4435 63.3957 79.369 60.3831C81.3785 57.2862 82.3832 53.604 82.3832 49.3359C82.3832 45.0675 81.3785 41.427 79.369 38.4141C77.4435 35.3175 74.6387 32.9742 70.955 31.384C67.2714 29.7102 62.8758 28.8733 57.7688 28.8733C52.6617 28.8733 48.2662 29.7102 44.5824 31.384C40.8986 32.9742 38.0521 35.3175 36.0427 38.4141C34.1171 41.427 33.1543 45.0675 33.1543 49.3359C33.1543 53.604 34.1171 57.2862 36.0427 60.3831C38.0521 63.3957 40.8986 65.739 44.5824 67.413C48.2662 69.0032 52.6617 69.7982 57.7688 69.7982Z" fill="#D2D3E0"/>
<path d="M156.061 98.546C149.279 98.546 143.46 97.1651 138.605 94.4033C133.748 91.5576 130.023 87.6241 127.427 82.6029C124.916 77.4978 123.66 71.5976 123.66 64.9024V24.2285H155.558V60.3831C155.558 64.3166 156.563 67.371 158.572 69.547C160.665 71.723 163.596 72.8112 167.363 72.8112C170.293 72.8112 172.68 72.3088 174.521 71.3045C176.447 70.2167 177.87 68.6266 178.791 66.534C179.796 64.358 180.298 61.7221 180.298 58.6252L189.717 63.3956C188.629 71.1791 186.41 77.7071 183.061 82.9795C179.796 88.1684 175.819 92.06 171.131 94.6544C166.526 97.2485 161.502 98.546 156.061 98.546ZM185.322 96.4119L180.298 65.6555V24.2285H212.196V70.5514L217.22 96.4119H185.322Z" fill="#D2D3E0"/>
<path d="M225.338 51.8465L239.403 22.471L241.413 34.2714C238.231 34.2714 235.343 33.5182 232.747 32.0117C230.152 30.5053 228.101 28.4967 226.594 25.986C225.087 23.3916 224.333 20.5461 224.333 17.4495C224.333 14.353 225.087 11.5493 226.594 9.03858C228.101 6.52789 230.152 4.51931 232.747 3.01286C235.343 1.50642 238.231 0.753204 241.413 0.753204C244.594 0.753204 247.441 1.50642 249.952 3.01286C252.548 4.51931 254.599 6.56974 256.106 9.16414C257.613 11.6748 258.367 14.5203 258.367 17.7006C258.367 20.5461 257.613 23.6426 256.106 26.9903C254.682 30.3379 252.213 34.4806 248.697 39.4184L239.905 51.8465H225.338Z" fill="#D2D3E0"/>
<path d="M305.118 98.6714C296.159 98.6714 288.122 97.0812 281.006 93.9009C273.973 90.6372 268.405 86.1179 264.303 80.3431C260.201 74.4848 258.149 67.7057 258.149 60.0061C258.149 52.3904 260.117 45.7371 264.052 40.0461C268.071 34.3551 273.512 29.9195 280.378 26.7392C287.243 23.559 294.945 21.9688 303.485 21.9688C312.444 21.9688 320.062 23.8101 326.341 27.4925C332.621 31.1748 337.435 36.4055 340.784 43.1844C344.133 49.8798 345.807 57.8306 345.807 67.0364H284.271V52.3485H327.221L318.681 57.1189C318.262 53.8552 317.425 51.1353 316.169 48.9593C314.913 46.7834 313.239 45.1513 311.146 44.0632C309.137 42.8915 306.709 42.3057 303.862 42.3057C300.68 42.3057 297.96 43.0171 295.699 44.4398C293.522 45.8625 291.848 47.8292 290.676 50.3402C289.588 52.767 289.043 55.5288 289.043 58.6252C289.043 62.6425 289.922 66.0321 291.68 68.7939C293.522 71.4718 296.285 73.5224 299.969 74.9453C303.653 76.3677 308.299 77.0793 313.909 77.0793C319.351 77.0793 324.625 76.4096 329.732 75.0707C334.923 73.6478 339.695 71.6391 344.049 69.0451V87.1222C338.691 90.8883 332.579 93.7755 325.713 95.7842C318.932 97.709 312.067 98.6714 305.118 98.6714Z" fill="#D2D3E0"/>
<path d="M444.767 71.8069C444.767 77.8325 442.884 82.8541 439.116 86.871C435.349 90.8045 430.074 93.7755 423.293 95.7842C416.595 97.709 408.725 98.6714 399.683 98.6714C390.39 98.6714 382.185 97.5836 375.068 95.4076C368.036 93.1478 362.468 90.0094 358.366 85.9925C354.347 81.9752 352.212 77.2886 351.961 71.9323H384.362C384.948 73.5224 385.953 74.8614 387.376 75.9496C388.799 76.9535 390.641 77.7486 392.902 78.3344C395.246 78.8368 398.092 79.088 401.441 79.088C405.46 79.088 408.516 78.7114 410.609 77.9578C412.702 77.1213 413.748 75.9911 413.748 74.5687C413.748 73.1459 412.869 72.1415 411.111 71.5557C409.353 70.9699 406.507 70.5514 402.571 70.3002L390.766 69.5471C381.641 68.9612 374.357 67.7896 368.915 66.0321C363.556 64.1908 359.705 61.7221 357.361 58.6252C355.017 55.5288 353.845 51.8046 353.845 47.4526C353.845 41.678 355.645 36.9077 359.245 33.1416C362.929 29.3755 368.036 26.5719 374.566 24.7306C381.096 22.8894 388.715 21.9688 397.423 21.9688C405.962 21.9688 413.539 23.0568 420.153 25.2328C426.767 27.325 432.084 30.2961 436.102 34.1459C440.121 37.9956 442.465 42.4731 443.135 47.5784H410.734C410.316 46.0717 409.478 44.7746 408.223 43.6866C406.967 42.5986 405.334 41.7617 403.325 41.1759C401.316 40.59 398.888 40.2971 396.041 40.2971C392.19 40.2971 389.385 40.7575 387.627 41.678C385.869 42.515 384.99 43.6448 384.99 45.0675C384.99 46.4063 385.534 47.3692 386.622 47.955C387.711 48.457 389.846 48.7916 393.027 48.9593L408.851 49.9632C417.893 50.4656 425.009 51.6373 430.2 53.4786C435.475 55.2361 439.2 57.6213 441.377 60.6339C443.637 63.6469 444.767 67.3711 444.767 71.8069Z" fill="#D2D3E0"/>
<path d="M447.451 47.4526V33.7692L461.641 26.6137L475.582 4.51932H493.542V24.2285H521.798V47.4526H493.542V62.266C493.542 66.8691 494.418 70.1329 496.177 72.0576C497.937 73.899 501.537 74.8195 506.978 74.8195C510.325 74.8195 513.298 74.6102 515.892 74.1921C518.572 73.6897 520.959 73.1039 523.052 72.4342V95.533C520.205 96.37 516.691 97.0812 512.504 97.667C508.403 98.3367 504.09 98.6713 499.57 98.6713C491.03 98.6713 483.955 97.4163 478.343 94.9052C472.735 92.3112 468.549 88.5865 465.788 83.7326C463.022 78.8787 461.641 73.1039 461.641 66.4087V47.4526H447.451Z" fill="#D2D3E0"/>
<path d="M532.82 40.2971H568.235V65.1531H532.82V40.2971Z" fill="#D2D3E0"/>
<path d="M670.809 64.6512C670.223 71.4303 667.836 77.372 663.649 82.4771C659.463 87.5827 653.981 91.5576 647.2 94.4033C640.501 97.249 632.926 98.6714 624.467 98.6714C615.259 98.6714 607.138 97.0812 600.105 93.9009C593.071 90.6372 587.59 86.1179 583.656 80.3431C579.717 74.5687 577.75 67.915 577.75 60.3831C577.75 52.767 579.717 46.1137 583.656 40.4227C587.59 34.648 593.071 30.1287 600.105 26.8648C607.138 23.6008 615.259 21.9688 624.467 21.9688C632.926 21.9688 640.501 23.3916 647.2 26.2371C653.981 29.0826 659.463 33.0579 663.649 38.163C667.836 43.1845 670.223 49.1267 670.809 55.9892H639.287C638.534 52.3904 636.819 49.7125 634.139 47.955C631.545 46.1137 628.32 45.1932 624.467 45.1932C621.539 45.1932 618.945 45.779 616.684 46.9507C614.505 48.0384 612.832 49.7125 611.659 51.9719C610.486 54.2318 609.899 57.0355 609.899 60.3831C609.899 63.7308 610.486 66.534 611.659 68.7939C612.832 70.9699 614.505 72.6435 616.684 73.8151C618.945 74.9034 621.539 75.4472 624.467 75.4472C628.32 75.4472 631.545 74.4848 634.139 72.5601C636.819 70.5514 638.534 67.915 639.287 64.6512H670.809Z" fill="#D2D3E0"/>
<path d="M723.567 98.6714C714.611 98.6714 706.572 97.0812 699.457 93.9009C692.424 90.6372 686.857 86.1179 682.751 80.3431C678.65 74.4848 676.602 67.7057 676.602 60.0061C676.602 52.3904 678.569 45.7371 682.503 40.0461C686.523 34.3551 691.964 29.9195 698.83 26.7392C705.692 23.559 713.398 21.9688 721.934 21.9688C730.893 21.9688 738.513 23.8101 744.793 27.4925C751.069 31.1748 755.887 36.4055 759.235 43.1844C762.582 49.8798 764.256 57.8306 764.256 67.0364H702.719V52.3485H745.669L737.133 57.1189C736.713 53.8552 735.874 51.1353 734.62 48.9593C733.366 46.7834 731.687 45.1513 729.594 44.0632C727.587 42.8915 725.159 42.3057 722.313 42.3057C719.132 42.3057 716.411 43.0171 714.151 44.4398C711.972 45.8625 710.298 47.8292 709.125 50.3402C708.038 52.767 707.492 55.5288 707.492 58.6252C707.492 62.6425 708.372 66.0321 710.131 68.7939C711.972 71.4718 714.733 73.5224 718.419 74.9453C722.105 76.3677 726.747 77.0793 732.36 77.0793C737.801 77.0793 743.075 76.4096 748.182 75.0707C753.374 73.6478 758.148 71.6391 762.501 69.0451V87.1222C757.141 90.8883 751.028 93.7755 744.162 95.7842C737.381 97.709 730.519 98.6714 723.567 98.6714Z" fill="#D2D3E0"/>
<path d="M95.3185 133.624V226.521H63.4198V185.722L64.6758 178.817V154.965L63.4198 151.451V133.624H95.3185ZM72.8389 169.779C72.0016 177.478 69.9083 184.216 66.5594 189.99C63.2944 195.681 58.9827 200.117 53.6244 203.297C48.35 206.477 42.2799 208.067 35.4147 208.067C28.382 208.067 22.1865 206.477 16.8282 203.297C11.5537 200.117 7.40945 195.639 4.39544 189.865C1.46515 184.09 0 177.395 0 169.779C0 162.079 1.46515 155.342 4.39544 149.568C7.40945 143.793 11.5537 139.316 16.8282 136.135C22.1865 132.955 28.382 131.365 35.4147 131.365C42.2799 131.365 48.35 132.955 53.6244 136.135C58.9827 139.232 63.3363 143.667 66.6852 149.442C70.0341 155.133 72.0851 161.912 72.8389 169.779ZM32.1495 169.779C32.1495 172.541 32.6937 175.009 33.7821 177.185C34.9542 179.278 36.5449 180.951 38.5543 182.207C40.6474 183.462 43.0335 184.09 45.7125 184.09C48.4754 184.09 51.1548 183.462 53.7498 182.207C56.3453 180.951 58.606 179.278 60.5315 177.185C62.541 175.009 63.9224 172.541 64.6758 169.779C63.9224 167.017 62.541 164.548 60.5315 162.372C58.606 160.196 56.3453 158.48 53.7498 157.225C51.1548 155.97 48.4754 155.342 45.7125 155.342C43.0335 155.342 40.6474 155.97 38.5543 157.225C36.5449 158.48 34.9542 160.196 33.7821 162.372C32.6937 164.548 32.1495 167.017 32.1495 169.779Z" fill="#D2D3E0"/>
<path d="M138.891 207.942C132.109 207.942 126.29 206.561 121.435 203.799C116.579 200.954 112.853 197.02 110.258 191.999C107.746 186.894 106.49 180.993 106.49 174.298V133.624H138.388V169.779C138.388 173.712 139.393 176.767 141.403 178.943C143.496 181.119 146.426 182.207 150.193 182.207C153.124 182.207 155.51 181.705 157.352 180.701C159.277 179.612 160.701 178.022 161.621 175.93C162.626 173.754 163.129 171.118 163.129 168.021L172.547 172.792C171.459 180.575 169.241 187.103 165.892 192.375C162.626 197.564 158.649 201.456 153.961 204.05C149.356 206.645 144.333 207.942 138.891 207.942ZM168.152 205.808L163.129 175.051V133.624H195.027V179.947L200.05 205.808H168.152Z" fill="#D2D3E0"/>
<path d="M208.168 161.242L222.234 131.867L224.243 143.667C221.061 143.667 218.173 142.914 215.578 141.408C212.982 139.901 210.931 137.893 209.424 135.382C207.917 132.788 207.164 129.942 207.164 126.845C207.164 123.749 207.917 120.945 209.424 118.435C210.931 115.924 212.982 113.915 215.578 112.409C218.173 110.902 221.061 110.149 224.243 110.149C227.424 110.149 230.271 110.902 232.783 112.409C235.378 113.915 237.429 115.966 238.936 118.56C240.443 121.071 241.197 123.916 241.197 127.097C241.197 129.942 240.443 133.038 238.936 136.386C237.513 139.734 235.043 143.876 231.527 148.814L222.736 161.242H208.168Z" fill="#D2D3E0"/>
<path d="M288.702 208.067C279.157 208.067 270.785 206.477 263.585 203.297C256.468 200.117 250.901 195.639 246.882 189.865C242.947 184.09 240.98 177.395 240.98 169.779C240.98 162.079 242.947 155.342 246.882 149.568C250.901 143.793 256.468 139.316 263.585 136.135C270.785 132.955 279.157 131.365 288.702 131.365C298.246 131.365 306.577 132.955 313.693 136.135C320.893 139.316 326.461 143.793 330.396 149.568C334.414 155.342 336.424 162.079 336.424 169.779C336.424 177.395 334.414 184.09 330.396 189.865C326.461 195.639 320.893 200.117 313.693 203.297C306.577 206.477 298.246 208.067 288.702 208.067ZM288.702 184.843C292.051 184.843 294.855 184.258 297.116 183.085C299.46 181.914 301.218 180.198 302.39 177.939C303.646 175.679 304.274 172.959 304.274 169.779C304.274 166.515 303.646 163.753 302.39 161.493C301.218 159.234 299.46 157.518 297.116 156.346C294.855 155.175 292.051 154.589 288.702 154.589C285.437 154.589 282.632 155.175 280.288 156.346C277.943 157.518 276.143 159.234 274.888 161.493C273.716 163.753 273.13 166.473 273.13 169.653C273.13 172.917 273.716 175.679 274.888 177.939C276.143 180.198 277.943 181.914 280.288 183.085C282.632 184.258 285.437 184.843 288.702 184.843Z" fill="#D2D3E0"/>
<path d="M341.411 133.624H373.309L378.333 164.381V205.808H346.434V159.485L341.411 133.624ZM403.324 131.365C410.357 131.365 416.343 132.788 421.282 135.633C426.222 138.395 429.989 142.328 432.585 147.433C435.264 152.455 436.604 158.355 436.604 165.134V205.808H404.706V169.653C404.706 165.636 403.575 162.54 401.315 160.364C399.138 158.188 396.04 157.099 392.021 157.099C389.175 157.099 386.705 157.685 384.612 158.857C382.603 159.945 381.053 161.577 379.965 163.753C378.877 165.845 378.333 168.398 378.333 171.411L368.914 166.64C370.086 158.774 372.347 152.246 375.696 147.057C379.044 141.784 383.105 137.851 387.877 135.256C392.649 132.662 397.798 131.365 403.324 131.365Z" fill="#D2D3E0"/>
<path d="M533.636 130.235C528.362 130.235 524.884 131.03 523.21 132.62C521.536 134.21 520.702 136.637 520.702 139.901V205.808H488.801V141.156C488.801 133.541 490.393 127.222 493.574 122.2C496.755 117.095 501.401 113.288 507.515 110.777C513.623 108.183 521.036 106.885 529.743 106.885C533.424 106.885 536.776 107.136 539.79 107.638C542.804 108.057 546.111 108.726 549.711 109.647V132.494C547.112 131.825 544.478 131.281 541.798 130.862C539.204 130.444 536.483 130.235 533.636 130.235ZM474.612 163.502V140.278H547.699V163.502H474.612Z" fill="#D2D3E0"/>
<path d="M618.313 205.808L614.668 180.324L618.313 169.779L614.668 159.359L618.313 133.624H651.464L646.442 169.653L651.464 205.808H618.313ZM624.967 169.779C624.128 177.478 622.035 184.216 618.687 189.99C615.421 195.681 611.113 200.117 605.753 203.297C600.479 206.477 594.406 208.067 587.544 208.067C580.511 208.067 574.317 206.477 568.957 203.297C563.683 200.117 559.537 195.639 556.523 189.865C553.595 184.09 552.129 177.395 552.129 169.779C552.129 162.079 553.595 155.342 556.523 149.568C559.537 143.793 563.683 139.316 568.957 136.135C574.317 132.955 580.511 131.365 587.544 131.365C594.406 131.365 600.479 132.955 605.753 136.135C611.113 139.232 615.466 143.667 618.814 149.442C622.161 155.133 624.214 161.912 624.967 169.779ZM584.278 169.779C584.278 172.541 584.824 175.009 585.911 177.185C587.084 179.278 588.672 180.951 590.684 182.207C592.778 183.462 595.16 184.09 597.84 184.09C600.605 184.09 603.281 183.462 605.879 182.207C608.473 180.951 610.734 179.278 612.66 177.185C614.668 175.009 616.053 172.541 616.806 169.779C616.053 167.017 614.668 164.548 612.66 162.372C610.734 160.196 608.473 158.48 605.879 157.225C603.281 155.97 600.605 155.342 597.84 155.342C595.16 155.342 592.778 155.97 590.684 157.225C588.672 158.48 587.084 160.196 585.911 162.372C584.824 164.548 584.278 167.017 584.278 169.779Z" fill="#D2D3E0"/>
<path d="M661.583 132.118L677.531 135.382L693.479 132.118V205.808H661.583V132.118ZM677.531 128.352C672.172 128.352 667.863 127.055 664.597 124.46C661.33 121.866 659.697 118.309 659.697 113.79C659.697 109.27 661.33 105.713 664.597 103.119C667.863 100.524 672.172 99.2274 677.531 99.2274C682.972 99.2274 687.285 100.524 690.466 103.119C693.732 105.713 695.365 109.27 695.365 113.79C695.365 118.309 693.732 121.866 690.466 124.46C687.285 127.055 682.972 128.352 677.531 128.352Z" fill="#D2D3E0"/>
<path d="M700.215 156.849V143.165L714.404 136.009L728.344 113.915H746.305V133.624H774.56V156.849H746.305V171.662C746.305 176.265 747.18 179.529 748.94 181.454C750.699 183.295 754.299 184.216 759.74 184.216C763.088 184.216 766.061 184.006 768.655 183.588C771.335 183.085 773.721 182.5 775.815 181.83V204.929C772.968 205.766 769.453 206.477 765.267 207.063C761.161 207.732 756.853 208.067 752.332 208.067C743.792 208.067 736.718 206.812 731.105 204.301C725.498 201.707 721.311 197.983 718.55 193.129C715.784 188.274 714.404 182.5 714.404 175.804V156.849H700.215Z" fill="#D2D3E0"/>
<path fill-rule="evenodd" clip-rule="evenodd" d="M844.16 112.939C840.131 118.724 838.119 125.134 838.119 132.17C838.119 133.108 838.2 134.202 838.353 135.453C838.507 136.704 838.818 138.033 839.283 139.44H891.07V138.033C891.07 135.375 891.765 133.186 893.159 131.466C894.707 129.59 896.953 128.027 899.895 126.776L915.198 120.277L906.631 27.5082C896.069 24.4256 883.762 22.8843 869.704 22.8843C844.624 22.8843 824.652 28.5127 809.786 39.7696C795.079 51.0266 787.107 66.7392 785.866 86.9075H842.066C842.996 80.9668 845.707 76.3546 850.196 73.071C854.843 69.7879 861.267 68.1463 869.474 68.1463C877.369 68.1463 883.175 69.2408 886.888 71.4294C890.759 73.6185 892.695 76.7451 892.695 80.8103C892.695 82.8428 891.919 84.6409 890.371 86.204C888.977 87.7675 886.658 89.1746 883.405 90.4256L865.292 97.9299C855.384 101.995 848.337 106.998 844.16 112.939ZM841.836 197.835C847.566 203.15 855.15 205.809 864.597 205.809C874.039 205.809 881.623 203.15 887.353 197.835C893.083 192.363 895.947 185.249 895.947 176.494C895.947 167.739 893.083 160.703 887.353 155.387C881.623 149.915 874.039 147.179 864.597 147.179C855.15 147.179 847.566 149.915 841.836 155.387C836.107 160.703 833.242 167.739 833.242 176.494C833.242 185.249 836.107 192.363 841.836 197.835Z" fill="#D2D3E0"/>
<path d="M913.709 28.2639H975.571L965.574 135.443H923.711L913.709 28.2639ZM944.64 205.808C935.184 205.808 927.587 203.168 921.853 197.886C916.114 192.45 913.245 185.382 913.245 176.683C913.245 167.985 916.114 160.995 921.853 155.714C927.587 150.277 935.184 147.559 944.64 147.559C954.101 147.559 961.698 150.277 967.433 155.714C973.171 160.995 976.036 167.985 976.036 176.683C976.036 185.382 973.171 192.45 967.433 197.886C961.698 203.168 954.101 205.808 944.64 205.808Z" fill="#D2D3E0"/>
</svg>
